<svg width="60" height="60" viewBox="0 0 60 60" fill="none" xmlns="http://www.w3.org/2000/svg">
<rect width="60" height="60" fill="#E1D8F1"/>
<path fill-rule="evenodd" clip-rule="evenodd" d="M18.3081 14.0679C16.0258 14.0679 14.337 16.0655 14.4126 18.2319C14.4852 20.3133 14.3909 23.0089 13.7123 25.2072C13.0312 27.4116 11.8803 28.8086 10 28.9879V31.0122C11.8803 31.1919 13.0313 32.5882 13.7122 34.793C14.3909 36.9912 14.4851 39.6869 14.4125 41.7682C14.3369 43.9343 16.0257 45.9322 18.3084 45.9322H41.6949C43.9773 45.9322 45.6658 43.9346 45.5902 41.7682C45.5176 39.6869 45.6119 36.9912 46.2905 34.793C46.9715 32.5882 48.1196 31.1914 50 31.0122V28.9879C48.1197 28.8082 46.9716 27.4119 46.2905 25.2072C45.6118 23.0092 45.5176 20.3133 45.5902 18.2319C45.6658 16.0658 43.9773 14.0679 41.6949 14.0679H18.3081ZM37.1187 33.6825C37.1187 36.6655 34.8936 38.4747 31.201 38.4747H24.9152C24.7354 38.4747 24.563 38.4032 24.4358 38.2761C24.3087 38.149 24.2373 37.9765 24.2373 37.7967V22.2035C24.2373 22.0237 24.3087 21.8512 24.4358 21.7241C24.563 21.597 24.7354 21.5255 24.9152 21.5255H31.1652C34.2442 21.5255 36.2649 23.1933 36.2649 25.754C36.2649 27.5512 34.9055 29.1602 33.1737 29.4421V29.5358C35.5312 29.7944 37.1187 31.4272 37.1187 33.6825ZM30.5156 23.6747H26.9316V28.7372H29.9502C32.2838 28.7372 33.5705 27.7975 33.5705 26.1179C33.5703 24.5438 32.4641 23.6747 30.5156 23.6747ZM26.9316 30.7458V36.3248H30.6475C33.0772 36.3248 34.3641 35.3499 34.3641 33.5177C34.3641 31.6855 33.0411 30.7455 30.4913 30.7455L26.9316 30.7458Z" fill="url(#paint0_linear_5994_109154)"/>
<defs>
<linearGradient id="paint0_linear_5994_109154" x1="22.808" y1="14.0641" x2="30" y2="45.9322" gradientUnits="userSpaceOnUse">
<stop stop-color="#8F13FE"/>
<stop offset="1" stop-color="#7011F5"/>
</linearGradient>
</defs>
</svg>
