<svg width="36" height="33" viewBox="0 0 36 33" fill="none" xmlns="http://www.w3.org/2000/svg">
<path d="M18 23.9075C7.90435 23.9075 0 20.4641 0 16.0815C0 11.6989 7.90435 8.25537 18 8.25537C28.0957 8.25537 36 11.6989 36 16.0815C36 20.4641 28.0957 23.9075 18 23.9075ZM18 9.82059C8.13913 9.82059 1.56522 13.0293 1.56522 16.0815C1.56522 19.1336 8.13913 22.3423 18 22.3423C27.8609 22.3423 34.4348 19.1336 34.4348 16.0815C34.4348 13.0293 27.8609 9.82059 18 9.82059Z" fill="#61DAFB"/>
<path d="M11.0348 32.2034C10.2522 32.2034 9.62615 32.0469 9.00006 31.6556C5.16528 29.4643 6.18267 20.9338 11.1914 12.1686C13.5392 8.09905 16.4348 4.65557 19.2522 2.46427C22.3044 0.116439 25.0435 -0.587909 26.9218 0.507743C28.8783 1.6034 29.5827 4.34253 29.1131 8.17731C28.6435 11.7773 27.0783 16.0034 24.7305 20.073C22.3827 24.1425 19.487 27.586 16.6696 29.7773C14.6348 31.3425 12.6783 32.2034 11.0348 32.2034ZM24.9653 1.52514C23.7131 1.52514 22.0696 2.22948 20.2696 3.63818C17.6088 5.75122 14.8696 9.03818 12.6001 12.9512C7.66963 21.4817 7.20006 28.8382 9.78267 30.3251C11.1131 31.1078 13.3044 30.4034 15.7305 28.5251C18.3914 26.4121 21.1305 23.1251 23.4001 19.2121C25.6696 15.2991 27.1566 11.3077 27.6262 7.94253C28.0175 4.81209 27.5479 2.62079 26.2175 1.83818C25.8262 1.68166 25.4348 1.52514 24.9653 1.52514Z" fill="#61DAFB"/>
<path d="M25.0435 32.2035C21.1305 32.2035 15.4957 27.4296 11.2696 19.9948C6.18267 11.2296 5.16528 2.69914 9.00007 0.507834C12.8348 -1.68347 19.7218 3.40349 24.8088 12.1687C27.1566 16.2383 28.7218 20.4644 29.1914 24.0644C29.7392 27.8991 28.9566 30.56 27.0001 31.7339C26.374 32.047 25.7479 32.2035 25.0435 32.2035ZM9.78267 1.83827C7.20006 3.32523 7.66963 10.6817 12.6001 19.2122C17.5305 27.7426 23.6348 31.8122 26.2175 30.3252C27.5479 29.5426 28.0175 27.3513 27.6262 24.2209C27.1566 20.8557 25.6696 16.8644 23.4001 12.9513C18.4696 4.42088 12.3653 0.351312 9.78267 1.83827Z" fill="#61DAFB"/>
<path d="M17.9986 19.2112C19.7275 19.2112 21.129 17.8096 21.129 16.0808C21.129 14.3519 19.7275 12.9503 17.9986 12.9503C16.2697 12.9503 14.8682 14.3519 14.8682 16.0808C14.8682 17.8096 16.2697 19.2112 17.9986 19.2112Z" fill="#61DAFB"/>
</svg>
