<?xml version="1.0" standalone="no"?>
<!DOCTYPE svg PUBLIC "-//W3C//DTD SVG 20010904//EN"
 "http://www.w3.org/TR/2001/REC-SVG-20010904/DTD/svg10.dtd">
<svg version="1.0" xmlns="http://www.w3.org/2000/svg"
 width="1438.000000pt" height="983.000000pt" viewBox="0 0 1438.000000 983.000000"
 preserveAspectRatio="xMidYMid meet">

<g transform="translate(0.000000,983.000000) scale(0.100000,-0.100000)"
fill="#000000" stroke="none">
<path d="M14362 5864 c-7 -8 -8 -14 -3 -14 10 0 25 19 20 25 -2 1 -10 -3 -17
-11z"/>
<path d="M14354 5832 c4 -7 2 -21 -4 -32 -10 -19 -9 -20 8 -9 22 14 23 40 2
47 -7 3 -10 0 -6 -6z"/>
<path d="M14300 5791 c0 -10 19 -25 25 -20 1 2 -3 10 -11 17 -8 7 -14 8 -14 3z"/>
<path d="M14223 5765 c0 -8 4 -12 9 -9 5 3 6 10 3 15 -9 13 -12 11 -12 -6z"/>
<path d="M14355 5740 c-4 -6 -10 -8 -14 -5 -5 2 -17 -5 -27 -17 -11 -12 -14
-18 -7 -15 6 4 14 1 16 -5 3 -8 6 -6 6 5 1 9 6 17 12 17 6 0 9 -7 6 -15 -4 -8
-2 -17 4 -20 5 -4 8 -1 7 7 -2 7 3 12 10 11 6 -2 12 2 12 7 0 6 -6 10 -12 10
-10 0 -9 3 1 9 8 5 9 11 3 15 -6 3 -13 2 -17 -4z"/>
<path d="M14265 5680 c-3 -5 -1 -10 4 -10 6 0 11 5 11 10 0 6 -2 10 -4 10 -3
0 -8 -4 -11 -10z"/>
<path d="M14366 5675 c-3 -9 -12 -12 -23 -9 -13 5 -12 2 4 -10 12 -9 20 -23
17 -30 -3 -8 -1 -17 5 -20 6 -4 9 11 8 39 -1 50 -2 52 -11 30z"/>
<path d="M14305 5669 c-4 -5 1 -20 12 -31 10 -12 12 -18 6 -14 -8 4 -13 1 -13
-8 0 -9 -4 -16 -8 -16 -4 0 -8 12 -8 28 1 21 -4 27 -19 27 -11 0 -19 -6 -17
-13 1 -7 -5 -15 -13 -18 -8 -4 -15 -10 -15 -16 0 -5 6 -6 13 -2 8 5 7 2 -2
-10 -8 -9 -21 -14 -30 -11 -13 5 -13 4 -4 -6 22 -22 63 8 59 42 -2 16 1 26 5
23 5 -3 7 -21 4 -40 -3 -27 -1 -34 13 -34 9 0 24 -5 32 -10 11 -7 5 -8 -20 -4
-27 4 -32 3 -20 -6 13 -9 12 -10 -5 -8 -12 2 -19 -2 -17 -10 1 -8 -2 -11 -8
-7 -6 3 -7 12 -3 18 4 7 0 6 -10 -2 -15 -12 -17 -11 -17 5 -1 17 -2 16 -13 -4
-7 -12 -16 -20 -19 -17 -3 3 -11 -3 -19 -12 -13 -16 -12 -17 2 -5 14 10 18 10
23 -4 4 -10 12 -14 22 -10 11 4 15 2 11 -8 -3 -8 1 -20 9 -26 11 -10 14 -10
14 0 0 8 2 11 5 8 3 -3 1 -16 -4 -29 -5 -13 -10 -17 -10 -9 -1 9 -10 23 -21
33 -22 19 -35 22 -25 7 3 -5 -1 -10 -9 -10 -8 0 -19 8 -25 17 -7 14 -9 13 -8
-9 1 -14 5 -24 10 -21 4 2 7 -6 8 -19 1 -23 1 -23 8 2 7 24 7 24 14 -8 4 -19
4 -45 1 -58 -3 -13 -2 -24 4 -24 5 0 8 21 7 46 -1 32 1 41 8 29 5 -9 6 -27 3
-40 -3 -13 -2 -26 2 -29 9 -5 34 8 33 18 -5 33 10 35 25 2 10 -21 9 -24 -10
-24 -43 -2 -56 -6 -54 -14 2 -5 7 -9 12 -8 5 1 12 -2 15 -7 17 -24 91 -57 77
-35 -3 5 1 9 9 9 11 0 12 -4 4 -13 -8 -10 -3 -17 20 -29 l31 -16 0 112 c0 103
-1 111 -18 107 -11 -3 -19 0 -19 7 0 7 8 10 19 7 13 -3 18 1 18 17 0 13 -7 21
-17 22 -15 0 -15 2 -3 7 9 4 17 23 19 44 2 32 0 37 -14 32 -11 -5 -16 -2 -15
7 5 36 -2 58 -20 64 -11 4 -18 11 -15 16 4 5 4 9 1 9 -3 0 -8 -5 -11 -11z m35
-173 c0 -11 -19 -15 -25 -6 -3 5 1 10 9 10 9 0 16 -2 16 -4z m-40 -41 c-10
-27 -2 -32 20 -12 12 10 12 9 0 -8 -8 -11 -15 -22 -17 -24 -1 -2 -9 4 -18 13
-10 10 -12 16 -5 16 7 0 10 6 7 14 -5 12 0 18 20 25 1 1 -2 -10 -7 -24z m-19
-142 c12 -16 12 -17 -2 -6 -9 7 -20 9 -24 5 -5 -4 -5 -1 -1 6 9 16 11 15 27
-5z"/>
<path d="M14250 5570 c0 -5 5 -10 11 -10 5 0 7 5 4 10 -3 6 -8 10 -11 10 -2 0
-4 -4 -4 -10z"/>
<path d="M14141 5421 c-16 -10 -5 -34 12 -25 8 5 8 3 0 -7 -17 -17 -16 -29 1
-29 8 0 17 -5 19 -10 3 -6 4 -5 3 2 -2 7 1 21 5 30 7 12 4 18 -11 23 -11 4
-18 11 -15 16 8 11 4 11 -14 0z"/>
<path d="M14120 5379 c0 -5 5 -7 10 -4 6 3 10 8 10 11 0 2 -4 4 -10 4 -5 0
-10 -5 -10 -11z"/>
<path d="M14073 5343 c-7 -2 -13 -13 -13 -23 0 -10 -4 -22 -10 -25 -5 -3 -10
-10 -10 -16 0 -5 9 -4 20 3 11 7 19 20 18 28 -1 8 1 21 5 28 9 13 8 13 -10 5z"/>
<path d="M14133 5334 c15 -8 27 -19 27 -25 0 -6 -7 -3 -16 5 -8 9 -20 16 -25
16 -12 0 -12 -17 1 -25 19 -12 10 -22 -15 -17 -19 3 -25 0 -25 -12 0 -10 -4
-14 -10 -11 -5 3 -10 1 -10 -4 0 -10 22 -16 43 -12 5 1 6 -3 2 -9 -3 -5 -1
-10 6 -10 9 0 9 -4 -1 -15 -6 -8 -9 -19 -5 -25 4 -6 1 -17 -5 -25 -15 -18 -6
-19 22 -4 15 8 19 8 14 0 -4 -6 -2 -11 5 -11 25 0 -2 -13 -31 -15 -28 -2 -39
12 -23 29 13 13 11 65 -2 70 -8 3 -11 -4 -9 -20 2 -23 1 -23 -26 -9 -19 10
-31 11 -35 5 -4 -6 -10 -8 -15 -5 -5 3 -12 0 -16 -6 -5 -8 -3 -9 6 -4 10 6 12
3 7 -11 -6 -14 -2 -13 13 6 l21 25 -7 -25 c-6 -21 -5 -23 8 -13 15 13 28 8 28
-9 0 -5 -4 -7 -9 -4 -11 7 -17 -11 -17 -51 1 -31 1 -31 -17 -12 -10 10 -22 19
-28 19 -6 0 -8 4 -4 9 3 5 1 12 -4 15 -11 7 -9 -13 2 -31 5 -8 -1 -15 -18 -19
-14 -3 -23 -9 -20 -13 7 -6 12 -7 38 -10 13 -1 18 -41 5 -41 -4 0 -8 6 -8 14
0 7 -11 16 -25 18 -14 3 -25 1 -25 -3 0 -5 6 -9 14 -9 8 0 18 -5 22 -12 5 -8
2 -9 -9 -5 -12 4 -17 1 -17 -9 0 -10 6 -14 14 -11 10 4 13 1 10 -8 -3 -7 -14
-13 -25 -12 -12 1 -18 6 -14 15 4 10 0 12 -11 8 -8 -3 -19 -6 -22 -6 -4 0 0
-4 8 -10 12 -7 12 -12 0 -34 -7 -14 -20 -26 -28 -26 -12 0 -12 -3 -2 -15 8 -9
17 -12 24 -6 16 13 45 10 39 -5 -2 -6 -12 -11 -21 -9 -24 4 -37 -6 -21 -16 10
-6 7 -8 -8 -6 -12 0 -20 4 -18 7 2 3 -6 6 -18 7 -12 0 -16 -1 -10 -4 10 -3 9
-9 -3 -20 -9 -10 -14 -26 -11 -40 3 -18 1 -23 -10 -19 -11 5 -11 2 -2 -15 7
-15 8 -24 0 -32 -7 -7 -7 -16 1 -30 8 -17 8 -19 -6 -14 -8 3 -19 1 -22 -5 -5
-8 -10 -5 -15 8 -7 18 -8 18 -15 -3 -3 -13 -10 -20 -15 -17 -5 3 -6 -2 -3 -10
4 -12 11 -13 24 -6 13 7 22 4 35 -10 17 -19 17 -20 1 -20 -9 0 -14 5 -11 10 3
6 -3 10 -14 10 -23 0 -28 -15 -8 -23 7 -3 5 -6 -5 -6 -10 -1 -18 5 -19 12 0 6
-6 -4 -13 -23 -8 -19 -11 -39 -8 -44 3 -5 -7 -6 -23 -2 -23 6 -26 4 -21 -9 3
-9 6 -19 6 -21 0 -2 10 -4 23 -3 l22 0 -22 9 c-31 13 -29 22 2 10 23 -9 29 -6
26 13 0 4 3 7 9 7 6 0 10 -4 10 -8 0 -12 -44 -52 -57 -52 -14 0 -21 -20 -15
-42 6 -23 68 -62 83 -52 7 4 9 3 6 -3 -9 -14 67 -54 89 -47 14 4 15 3 6 -4
-11 -7 -10 -11 4 -16 11 -4 98 39 265 131 l249 138 0 281 0 281 -50 27 c-27
15 -52 26 -56 26 -4 -1 -10 2 -13 8 -8 11 -135 82 -147 82 -5 -1 3 -8 19 -16z
m51 -35 c-3 -6 0 -15 7 -20 9 -6 10 -9 2 -9 -15 0 -26 17 -18 30 3 6 8 10 11
10 3 0 2 -5 -2 -11z m21 -59 c-17 -33 -19 -44 -6 -35 5 3 12 1 15 -4 4 -5 -2
-8 -11 -7 -12 2 -18 13 -19 36 -1 18 2 27 6 20 5 -8 9 -7 13 4 4 9 9 16 12 16
3 0 -1 -13 -10 -30z m-125 -135 c0 -7 -30 -13 -34 -7 -3 4 4 9 15 9 10 1 19 0
19 -2z m31 -33 c-7 -2 -18 1 -23 6 -8 8 -4 9 13 5 13 -4 18 -8 10 -11z m66 -6
c0 -8 -6 -12 -15 -9 -11 5 -11 7 0 14 7 5 13 9 14 9 0 0 1 -6 1 -14z m-230
-93 c-9 -2 -15 -9 -11 -14 6 -10 -24 -25 -33 -15 -11 10 19 36 41 35 17 -1 18
-2 3 -6z m143 -18 c0 -8 -4 -15 -10 -15 -5 0 -7 7 -4 15 4 8 8 15 10 15 2 0 4
-7 4 -15z m-83 -37 c-3 -7 -5 -2 -5 12 0 14 2 19 5 13 2 -7 2 -19 0 -25z m53
2 c0 -5 -2 -10 -4 -10 -3 0 -8 5 -11 10 -3 6 -1 10 4 10 6 0 11 -4 11 -10z
m-99 -37 c13 -16 12 -17 -3 -4 -10 7 -18 15 -18 17 0 8 8 3 21 -13z m81 -43
c4 -3 -3 -12 -15 -19 -19 -13 -21 -12 -9 1 10 13 9 18 -3 28 -8 7 -15 17 -15
22 0 5 8 1 17 -9 10 -10 21 -20 25 -23z m-166 16 c-1 -6 -11 -28 -22 -50 -16
-29 -22 -35 -27 -23 -3 9 -2 19 2 22 5 3 7 14 4 26 -6 21 7 36 31 36 8 0 13
-5 12 -11z m71 -15 c-1 -11 -6 -17 -14 -14 -10 4 -11 9 -2 19 15 19 18 18 16
-5z m87 -69 c3 -5 -1 -9 -9 -9 -8 0 -12 4 -9 9 3 4 7 8 9 8 2 0 6 -4 9 -8z
m-199 -29 c13 -29 14 -44 3 -37 -5 3 -7 9 -4 12 3 3 -1 14 -11 24 -9 10 -11
18 -6 18 6 0 14 -8 18 -17z m-50 -103 c-3 -5 -12 -10 -18 -10 -7 0 -6 4 3 10
19 12 23 12 15 0z m65 -19 c0 -4 -6 -8 -14 -8 -8 0 -12 6 -9 14 5 13 23 9 23
-6z m-47 -26 c-7 -21 -12 -19 -10 4 0 11 5 18 9 15 4 -3 5 -11 1 -19z m-28 -5
c3 -5 1 -10 -4 -10 -6 0 -11 5 -11 10 0 6 2 10 4 10 3 0 8 -4 11 -10z m-10
-68 c-3 -3 -11 0 -18 7 -9 10 -8 11 6 5 10 -3 15 -9 12 -12z m-55 -14 c0 -4
-4 -8 -9 -8 -6 0 -12 4 -15 8 -3 5 1 9 9 9 8 0 15 -4 15 -9z"/>
<path d="M13845 4850 c-3 -5 -1 -10 4 -10 6 0 11 5 11 10 0 6 -2 10 -4 10 -3
0 -8 -4 -11 -10z"/>
<path d="M14003 5145 c0 -8 4 -12 8 -9 4 2 9 -2 12 -8 3 -7 4 -3 4 10 -1 24
-24 31 -24 7z"/>
<path d="M13875 4980 c-3 -5 -1 -10 4 -10 6 0 11 5 11 10 0 6 -2 10 -4 10 -3
0 -8 -4 -11 -10z"/>
<path d="M13836 4948 c3 -5 10 -6 15 -3 13 9 11 12 -6 12 -8 0 -12 -4 -9 -9z"/>
<path d="M13761 4771 c-8 -5 -9 -11 -3 -15 5 -3 12 1 16 9 6 17 6 18 -13 6z"/>
<path d="M13717 4726 c-4 -10 -1 -13 8 -9 8 3 12 9 9 14 -7 12 -11 11 -17 -5z"/>
<path d="M13690 4640 c0 -5 4 -10 9 -10 6 0 13 5 16 10 3 6 -1 10 -9 10 -9 0
-16 -4 -16 -10z"/>
<path d="M13652 4628 c2 -6 10 -13 16 -14 7 -1 8 0 2 3 -5 2 -8 9 -4 14 3 5 0
9 -6 9 -7 0 -10 -5 -8 -12z"/>
<path d="M14143 4496 c-127 -72 -234 -134 -238 -137 -3 -4 9 -14 27 -23 18 -9
47 -24 63 -34 177 -103 377 -213 381 -209 2 2 3 123 2 269 l-3 265 -232 -131z"/>
<path d="M13635 4539 c-3 -4 2 -6 10 -5 21 3 28 13 10 13 -9 0 -18 -4 -20 -8z"/>
<path d="M13640 4511 c0 -5 5 -13 10 -16 6 -3 10 -2 10 4 0 5 -4 13 -10 16 -5
3 -10 2 -10 -4z"/>
<path d="M13608 4474 c6 -3 10 -10 6 -15 -3 -5 0 -8 7 -7 6 2 14 -3 16 -10 3
-8 -3 -11 -18 -10 -15 2 -24 -3 -25 -12 0 -8 -2 -20 -2 -27 -1 -6 -12 -14 -24
-16 l-23 -4 23 -2 c16 -1 21 -5 16 -13 -5 -9 -3 -9 9 1 9 7 14 18 10 24 -3 6
-1 7 5 3 15 -9 15 -1 2 25 -7 13 -7 19 0 19 5 0 10 -4 10 -8 0 -20 29 -7 35
16 5 19 8 22 20 12 8 -7 15 -18 15 -24 0 -6 -4 -4 -10 4 -8 12 -10 12 -16 -4
-4 -11 -2 -21 7 -27 12 -7 11 -9 -1 -9 -9 0 -22 6 -29 13 -11 10 -13 9 -8 -5
4 -10 2 -18 -3 -18 -5 0 -7 -8 -4 -17 5 -14 4 -15 -4 -4 -8 11 -11 10 -16 -6
-3 -10 -15 -19 -26 -20 -11 -1 -18 2 -15 8 4 5 4 9 1 9 -3 0 -10 -9 -16 -20
-9 -16 -8 -18 5 -14 11 5 13 2 9 -9 -3 -9 -11 -14 -17 -11 -7 2 -25 0 -42 -5
-23 -7 -25 -9 -9 -10 30 -1 53 -29 33 -42 -10 -7 -8 -8 9 -6 13 2 28 10 33 18
8 11 9 10 7 -6 -2 -12 -11 -20 -24 -21 -32 -2 -47 -14 -35 -28 8 -9 1 -16 -24
-25 -19 -7 -35 -17 -35 -22 0 -5 17 0 37 11 21 11 43 20 50 20 7 0 16 7 21 16
5 9 12 16 15 15 4 0 14 2 23 6 13 5 13 8 2 15 -10 7 -8 8 5 4 10 -3 36 3 57
14 39 20 60 40 41 40 -5 0 -8 7 -7 15 1 9 6 14 12 13 5 -2 8 -9 6 -15 -4 -18
0 -17 73 19 36 17 62 35 58 38 -23 21 -145 81 -139 69 4 -8 -1 -4 -11 9 -10
12 -29 24 -41 27 -13 2 -33 7 -45 9 -12 3 -16 3 -9 0z m132 -90 c0 -8 -19 -13
-24 -6 -3 5 1 9 9 9 8 0 15 -2 15 -3z m-136 -101 c-13 -10 -20 -10 -23 -2 -4
14 19 30 33 22 5 -3 1 -12 -10 -20z m66 10 c-8 -3 -21 -10 -28 -16 -9 -7 -11
-6 -6 7 3 9 16 16 28 15 14 0 16 -2 6 -6z m-113 -34 c2 -24 0 -23 -16 8 -9 18
-9 22 2 18 7 -3 13 -15 14 -26z"/>
<path d="M13579 4443 c-13 -16 -12 -17 4 -4 16 13 21 21 13 21 -2 0 -10 -8
-17 -17z"/>
<path d="M13845 4329 c-16 -10 -37 -24 -45 -31 -8 -7 -16 -12 -18 -10 -7 8
-101 -52 -95 -61 3 -6 1 -7 -5 -3 -11 6 -60 -18 -73 -37 -3 -5 -9 -7 -11 -5
-9 5 -88 -43 -88 -54 0 -5 -6 -8 -13 -5 -7 3 -21 -1 -30 -8 -16 -11 -16 -13
-2 -19 9 -3 13 -2 10 4 -3 6 -2 10 3 10 5 0 12 -8 14 -18 4 -13 -1 -18 -21
-20 -26 -2 -67 -32 -43 -32 7 0 12 6 13 13 0 6 4 3 8 -8 12 -28 2 -39 -17 -22
-18 15 -52 12 -52 -5 0 -6 9 -8 21 -5 16 4 18 3 8 -9 -9 -11 -7 -14 12 -14 19
0 21 -2 9 -10 -11 -7 -11 -10 -2 -10 7 0 10 -5 7 -11 -5 -7 -14 -3 -27 10 -10
12 -23 19 -29 16 -5 -4 -9 -1 -9 4 0 6 -5 11 -11 11 -6 0 -9 -7 -5 -15 3 -8
-2 -18 -11 -23 -14 -8 -14 -10 1 -15 10 -4 19 -1 22 8 8 21 34 19 34 -2 0 -15
-2 -16 -10 -3 -5 8 -10 11 -11 5 -1 -5 -3 -14 -4 -20 -2 -5 -3 -16 -4 -23 0
-7 -5 -11 -10 -8 -5 4 -16 3 -25 0 -15 -6 -15 -8 1 -20 13 -9 14 -13 4 -14
-11 0 -11 -3 0 -17 10 -11 10 -14 2 -9 -8 4 -13 2 -13 -6 0 -8 -5 -6 -11 5 -5
9 -8 21 -4 26 3 5 1 13 -5 16 -6 4 -10 3 -9 -2 3 -20 -2 -34 -10 -28 -6 3 -8
-4 -6 -15 2 -11 -1 -20 -6 -20 -6 0 -9 -6 -6 -12 2 -7 10 -12 16 -10 6 1 11
-2 11 -8 0 -5 -7 -10 -15 -10 -8 0 -14 -5 -12 -11 1 -6 -5 -14 -13 -16 -13 -4
-13 -3 0 6 8 6 10 11 4 11 -6 0 -18 -8 -25 -17 -10 -11 -10 -14 -1 -9 7 4 12
1 12 -9 0 -9 -4 -14 -8 -11 -5 3 -8 -9 -8 -27 1 -24 -3 -31 -15 -29 -9 1 -21
-8 -28 -20 l-12 -23 5 23 c2 12 0 20 -5 16 -5 -3 -9 -12 -9 -20 0 -8 -4 -14
-10 -14 -5 0 -10 5 -10 10 0 6 -5 10 -10 10 -7 0 -7 -6 0 -20 6 -12 16 -17 26
-13 14 5 14 3 2 -16 -8 -14 -20 -20 -31 -17 -14 3 -16 1 -8 -8 6 -7 7 -17 3
-21 -4 -5 -2 -5 4 -2 7 4 15 0 18 -9 3 -8 11 -12 17 -8 7 4 9 3 5 -4 -3 -6 -2
-13 4 -17 5 -3 10 0 11 7 0 7 5 2 10 -11 7 -17 15 -22 29 -18 13 3 20 0 20 -9
0 -17 37 -37 52 -28 6 4 8 3 4 -4 -3 -6 13 -21 36 -35 24 -13 128 -74 233
-136 104 -61 194 -111 199 -111 5 0 143 75 308 166 l298 167 -2 284 -3 285
-160 90 c-88 49 -200 111 -250 138 l-90 47 -30 -18z m-325 -229 c0 -5 -2 -10
-4 -10 -3 0 -8 5 -11 10 -3 6 -1 10 4 10 6 0 11 -4 11 -10z m-30 -46 c0 -8
-19 -13 -24 -6 -3 5 1 9 9 9 8 0 15 -2 15 -3z m-205 -332 c-3 -3 -11 0 -18 7
-9 10 -8 11 6 5 10 -3 15 -9 12 -12z m-10 -32 c3 -6 -1 -7 -9 -4 -18 7 -21 14
-7 14 6 0 13 -4 16 -10z m-80 -97 c-5 -10 -8 -21 -7 -24 0 -3 -6 -6 -13 -6
-11 0 -12 4 -4 14 6 7 8 13 5 13 -4 0 -1 6 6 14 16 18 23 12 13 -11z"/>
<path d="M13500 4255 c0 -9 6 -12 15 -9 8 4 12 10 9 15 -8 14 -24 10 -24 -6z"/>
<path d="M13475 4201 c3 -5 0 -11 -7 -13 -8 -3 -9 -6 -1 -11 6 -4 16 -1 22 7
9 10 8 15 -4 20 -9 3 -14 2 -10 -3z"/>
<path d="M13437 4140 c-3 -11 -1 -20 4 -20 5 0 9 9 9 20 0 11 -2 20 -4 20 -2
0 -6 -9 -9 -20z"/>
<path d="M13412 4081 c-15 -11 -19 -20 -13 -30 7 -11 10 -9 15 7 4 11 17 22
29 24 17 2 18 5 6 10 -8 3 -25 -1 -37 -11z"/>
<path d="M13350 4039 c0 -5 5 -7 10 -4 6 3 10 8 10 11 0 2 -4 4 -10 4 -5 0
-10 -5 -10 -11z"/>
<path d="M13311 3994 c0 -11 3 -14 6 -6 3 7 2 16 -1 19 -3 4 -6 -2 -5 -13z"/>
<path d="M13300 3960 c-9 -6 -10 -10 -3 -10 6 0 15 5 18 10 8 12 4 12 -15 0z"/>
<path d="M13298 3933 c-10 -2 -18 -9 -18 -14 0 -6 4 -8 9 -5 5 4 11 1 13 -6 3
-7 7 -2 10 10 4 12 5 21 5 21 -1 -1 -10 -3 -19 -6z"/>
<path d="M13240 3801 c0 -5 -9 -13 -20 -16 -11 -4 -18 -11 -15 -16 4 -5 13 -2
22 6 9 9 22 14 31 10 12 -4 13 -3 2 10 -14 17 -20 19 -20 6z"/>
<path d="M13167 3710 c3 -11 10 -23 16 -27 5 -3 7 -1 3 5 -3 6 -2 13 4 17 5 3
10 -1 10 -9 0 -9 5 -16 10 -16 7 0 7 7 0 21 -7 11 -14 18 -17 15 -4 -3 -12 -1
-19 5 -9 8 -11 5 -7 -11z"/>
<path d="M13090 3566 c0 -2 7 -7 16 -10 8 -3 12 -2 9 4 -6 10 -25 14 -25 6z"/>
<path d="M13080 3532 c0 -8 -5 -10 -12 -6 -8 5 -8 1 1 -10 12 -14 12 -19 2
-25 -10 -6 -9 -10 3 -14 9 -4 16 -2 16 3 0 22 2 25 22 36 18 9 18 12 4 17 -9
4 -16 1 -16 -6 0 -8 -4 -6 -10 3 -7 11 -10 11 -10 2z"/>
<path d="M13125 3490 c10 -11 14 -20 10 -20 -4 0 0 -9 9 -19 17 -19 17 -19 -1
-17 -11 2 -18 11 -17 25 2 25 -14 27 -32 4 -12 -16 -15 -16 -25 -3 -9 13 -10
12 -5 -2 3 -10 1 -18 -4 -18 -5 0 -2 -9 7 -20 10 -11 23 -20 30 -20 6 0 14 -4
17 -9 5 -8 -15 -8 -34 -1 -3 1 -14 1 -25 0 -16 -2 -17 0 -6 14 12 14 12 16 -3
10 -11 -4 -15 -12 -10 -23 4 -9 7 -24 8 -33 0 -12 4 -14 12 -7 8 7 14 7 18 0
4 -5 2 -12 -4 -16 -5 -3 -10 -4 -10 0 0 3 -9 1 -21 -6 -15 -8 -18 -14 -10 -22
19 -19 13 -23 -25 -19 -26 3 -35 1 -30 -7 4 -6 1 -11 -8 -11 -9 0 -16 -7 -16
-15 0 -8 5 -15 11 -15 5 0 7 5 4 10 -3 6 -1 10 5 10 8 0 10 -9 6 -26 -5 -18
-3 -24 5 -18 8 4 9 3 5 -4 -4 -6 -14 -8 -22 -5 -14 5 -15 3 -5 -16 11 -20 11
-21 -7 -10 -10 6 -19 18 -19 25 0 7 4 11 8 8 4 -2 10 0 14 6 3 5 -3 10 -13 10
-24 0 -35 -35 -17 -54 8 -7 11 -17 7 -21 -4 -3 7 -4 23 0 24 5 21 2 -14 -14
-48 -23 -69 -28 -32 -7 17 9 20 15 11 21 -6 4 -18 1 -25 -6 -17 -19 -28 -69
-15 -69 5 0 10 4 10 9 0 5 7 12 16 15 13 5 14 4 6 -7 -9 -10 -8 -17 1 -27 10
-12 9 -12 -4 -2 -12 9 -18 9 -27 0 -9 -9 -5 -16 16 -30 15 -10 21 -18 15 -18
-22 0 -52 32 -46 49 5 13 3 14 -7 4 -8 -7 -15 -22 -17 -34 -3 -17 1 -19 19
-14 21 5 21 5 -2 -9 l-25 -15 30 -2 c22 -1 24 -3 10 -6 -11 -3 -26 -10 -33
-16 -9 -7 -16 -7 -25 2 -9 10 -9 12 3 9 20 -4 19 23 -3 47 -14 16 -20 17 -26
6 -7 -11 -9 -11 -14 0 -3 8 -6 9 -6 3 -1 -6 7 -18 16 -25 10 -8 14 -9 10 -2
-4 6 -3 14 2 17 5 3 12 -2 15 -11 8 -20 -18 -39 -47 -34 -5 1 -6 -3 -3 -8 3
-5 15 -7 26 -4 11 3 20 1 20 -5 0 -5 -13 -12 -30 -15 -16 -4 -30 -11 -30 -17
0 -6 7 -6 20 2 15 10 22 10 32 0 8 -8 8 -12 1 -12 -6 0 -9 -8 -6 -19 6 -23
-16 -39 -28 -20 -5 8 -3 17 4 21 8 5 4 8 -10 8 -14 0 -23 -6 -23 -15 0 -8 5
-15 11 -15 8 0 9 -4 0 -13 -6 -8 -8 -17 -4 -20 11 -12 11 -68 -1 -64 -6 2 -11
18 -11 34 0 17 -3 34 -7 38 -3 3 -6 -9 -5 -28 0 -21 -6 -42 -17 -52 -16 -16
-16 -18 0 -36 19 -22 29 -25 17 -6 -17 27 -11 41 7 17 11 -14 20 -19 20 -12 0
7 5 10 12 6 7 -5 5 -12 -8 -22 -18 -13 -18 -14 4 -7 16 4 22 3 20 -6 -2 -7 17
-24 42 -37 l45 -24 310 173 c171 95 368 205 440 245 71 39 130 75 132 80 3 10
-402 247 -423 247 -8 0 -12 3 -9 5 8 8 -95 63 -105 57 -6 -3 -10 0 -10 7 0 13
-52 38 -80 38 -9 0 -8 -6 5 -20z m61 -39 c0 -16 -3 -17 -14 -9 -12 10 -7 19
13 28 1 0 1 -9 1 -19z m-78 -32 c-7 -4 -18 -3 -26 3 -10 9 -10 13 0 19 7 4 18
3 26 -3 10 -9 10 -13 0 -19z m3 -66 c13 -16 12 -17 -3 -4 -10 7 -18 15 -18 17
0 8 8 3 21 -13z m-91 -78 c0 -2 -7 -8 -15 -15 -12 -10 -15 -10 -15 2 0 8 7 15
15 15 8 0 15 -1 15 -2z m30 -41 c0 -8 -19 -13 -24 -6 -3 5 1 9 9 9 8 0 15 -2
15 -3z m-23 -39 c0 -8 -4 -12 -9 -9 -5 3 -6 10 -3 15 9 13 12 11 12 -6z m-87
-105 c0 -5 -5 -10 -11 -10 -5 0 -7 5 -4 10 3 6 8 10 11 10 2 0 4 -4 4 -10z
m-30 -126 c0 -3 -13 -3 -29 -2 -16 1 -28 5 -26 9 5 6 55 0 55 -7z m-27 -27
c-3 -5 -11 -6 -19 -3 -7 3 -16 1 -19 -5 -4 -5 -11 -7 -16 -3 -16 10 -1 20 29
19 17 0 28 -4 25 -8z m-23 -41 c0 -2 -8 -10 -17 -17 -16 -13 -17 -12 -4 4 13
16 21 21 21 13z m0 -30 c0 -2 -8 -10 -17 -17 -16 -13 -17 -12 -4 4 13 16 21
21 21 13z m-60 -47 c0 -4 -4 -10 -9 -13 -14 -9 -32 20 -25 39 7 17 8 17 21 -1
7 -10 13 -21 13 -25z m15 -28 c3 -5 2 -12 -3 -15 -5 -3 -9 1 -9 9 0 17 3 19
12 6z m-19 -47 c1 -9 0 -13 -4 -10 -3 4 -7 14 -8 22 -1 9 0 13 4 10 3 -4 7
-14 8 -22z"/>
<path d="M12776 2827 c3 -10 9 -15 12 -12 3 3 0 11 -7 18 -10 9 -11 8 -5 -6z"/>
<path d="M14090 3329 c-157 -88 -288 -164 -293 -168 -4 -4 87 -62 203 -130
115 -68 210 -125 210 -128 0 -2 -3 -2 -7 0 -5 2 -103 59 -219 126 l-212 121
-63 -36 c-35 -20 -227 -128 -427 -240 -200 -113 -372 -210 -382 -216 -19 -12
-14 -16 175 -122 163 -92 470 -266 623 -353 100 -57 188 -101 194 -97 6 4 8 3
5 -2 -3 -6 21 -25 54 -43 32 -18 59 -35 59 -38 0 -2 -29 12 -65 32 l-65 36
-493 -276 c-270 -152 -496 -280 -500 -284 -4 -4 114 -76 263 -160 148 -84 270
-155 270 -157 0 -6 3 -8 -303 163 -172 95 -263 141 -270 135 -7 -5 -183 -105
-392 -222 -209 -117 -428 -241 -487 -275 l-106 -61 36 -19 c20 -11 53 -29 72
-41 19 -11 60 -34 90 -51 30 -17 161 -90 290 -163 129 -73 297 -168 373 -211
l139 -78 76 43 c104 58 122 68 122 62 0 -3 -35 -24 -77 -47 -109 -59 -109 -59
-81 -81 23 -19 23 -19 -11 -3 -24 12 -36 14 -44 6 -6 -6 -15 -11 -21 -11 -5 0
-2 6 8 13 17 12 5 21 -115 87 -74 41 -260 144 -414 230 -464 259 -459 257
-489 241 -14 -8 -23 -18 -20 -22 3 -5 -2 -6 -10 -3 -9 3 -16 1 -16 -5 0 -6 -7
-11 -15 -11 -8 0 -15 -5 -15 -11 0 -5 -3 -8 -7 -6 -12 6 -68 -29 -66 -41 1 -5
-7 -8 -17 -5 -16 4 -20 0 -21 -18 0 -22 -1 -23 -9 -4 -5 11 -9 14 -9 8 -1 -7
-7 -13 -15 -13 -8 0 -18 -5 -22 -12 -4 -6 -3 -8 4 -4 6 3 13 2 17 -3 8 -14 -5
-61 -17 -61 -5 0 -6 9 -3 20 4 14 2 20 -8 20 -9 0 -18 6 -20 13 -4 9 -6 9 -6
-1 -1 -7 -7 -10 -13 -7 -7 4 -4 0 6 -9 10 -8 22 -13 26 -11 11 7 7 -29 -4 -36
-4 -4 -3 -17 4 -29 7 -13 8 -20 2 -16 -6 3 -13 2 -17 -3 -4 -7 -15 -7 -31 -1
-15 6 -23 6 -19 1 3 -5 -5 -13 -17 -17 -21 -6 -21 -7 8 -19 24 -11 24 -16 -1
-15 -3 0 -20 -7 -38 -16 -29 -15 -30 -18 -12 -24 25 -9 42 -1 24 11 -11 7 -10
9 3 9 18 0 34 -17 24 -27 -3 -3 -16 -6 -30 -6 -17 0 -23 -4 -19 -13 3 -8 9
-11 14 -8 5 3 6 -3 2 -12 -4 -12 -3 -15 5 -10 7 4 12 3 12 -3 0 -6 -11 -13
-25 -17 -14 -3 -22 -10 -19 -15 3 -5 7 -22 9 -37 2 -15 2 -22 -1 -15 -3 7 -13
9 -22 6 -12 -3 -13 -2 -5 4 9 7 8 15 -6 37 -12 17 -21 24 -25 17 -4 -6 -2 -11
4 -11 6 0 8 -5 5 -11 -4 -6 -14 -8 -22 -5 -8 3 -11 1 -8 -4 3 -6 -4 -10 -17
-10 -18 0 -20 -2 -8 -10 12 -8 12 -10 1 -10 -8 0 -11 -3 -8 -6 4 -4 13 -2 20
4 8 7 18 8 22 4 5 -4 6 -2 2 3 -3 6 3 16 14 23 15 10 19 10 19 -2 0 -8 -6 -18
-12 -22 -9 -6 -5 -10 12 -15 23 -6 22 -7 -12 -13 -27 -6 -37 -14 -41 -32 -2
-14 0 -27 5 -30 18 -11 -15 -23 -34 -13 -14 7 -16 6 -12 -6 4 -8 12 -15 20
-15 8 0 14 -5 14 -11 0 -5 -4 -7 -10 -4 -6 4 -7 -1 -4 -12 4 -12 0 -10 -15 7
-11 14 -21 30 -21 37 0 7 -7 10 -15 7 -14 -6 -14 -8 0 -18 8 -6 17 -22 20 -34
3 -19 2 -22 -10 -12 -11 9 -12 7 -8 -9 3 -14 14 -21 29 -21 12 0 26 -5 30 -12
4 -6 3 -8 -4 -4 -6 3 -13 -3 -17 -14 -4 -11 -10 -18 -15 -15 -5 3 -11 -4 -15
-15 -8 -26 -25 -26 -18 0 3 11 9 20 12 20 4 0 8 7 8 15 0 8 -6 15 -14 15 -7 0
-13 -9 -13 -20 0 -13 -5 -18 -15 -14 -8 4 -15 2 -15 -3 0 -18 45 -50 156 -111
l111 -62 350 0 351 0 283 158 c318 178 338 189 324 174 -5 -5 -136 -81 -290
-167 -154 -86 -282 -159 -284 -161 -2 -2 480 -4 1072 -4 l1077 0 0 1175 0
1176 -22 -11 -23 -11 23 17 c22 16 22 20 22 234 l0 219 -55 31 c-30 17 -55 34
-55 36 0 3 25 -9 55 -26 l55 -31 0 340 c0 188 -1 341 -2 341 -2 -1 -131 -73
-288 -161z m170 -455 c0 -2 -9 0 -20 6 -11 6 -20 13 -20 16 0 2 9 0 20 -6 11
-6 20 -13 20 -16z m30 -569 c0 -2 -10 -9 -22 -15 -22 -11 -22 -10 -4 4 21 17
26 19 26 11z m-70 -40 c0 -2 -13 -11 -30 -20 -38 -19 -40 -11 -2 9 31 17 32
18 32 11z m-90 -50 c0 -2 -13 -11 -30 -20 -38 -19 -40 -11 -2 9 31 17 32 18
32 11z m-70 -40 c0 -2 -13 -11 -30 -20 -38 -19 -40 -11 -2 9 31 17 32 18 32
11z m-70 -40 c0 -2 -18 -14 -40 -25 -22 -11 -40 -18 -40 -15 0 2 17 13 38 24
42 23 42 23 42 16z m90 -171 c0 -2 -13 2 -30 11 -16 9 -30 18 -30 21 0 2 14
-2 30 -11 17 -9 30 -18 30 -21z m90 -50 c0 -2 -13 2 -30 11 -16 9 -30 18 -30
21 0 2 14 -2 30 -11 17 -9 30 -18 30 -21z m-660 -769 c0 -3 -18 4 -40 15 -22
11 -40 23 -40 25 0 3 18 -4 40 -15 22 -11 40 -23 40 -25z m90 -50 c0 -3 -18 4
-40 15 -22 11 -40 23 -40 25 0 3 18 -4 40 -15 22 -11 40 -23 40 -25z m50 -31
c0 -2 -9 0 -20 6 -11 6 -20 13 -20 16 0 2 9 0 20 -6 11 -6 20 -13 20 -16z
m320 -79 c0 -2 -10 -9 -22 -15 -22 -11 -22 -10 -4 4 21 17 26 19 26 11z m-73
-52 c0 -7 -4 -10 -8 -7 -5 3 -19 0 -31 -6 -21 -10 -21 -10 -6 3 10 8 16 16 13
18 -2 3 4 5 14 5 10 0 18 -6 18 -13z m-177 -88 c0 -2 -10 -9 -22 -15 -22 -11
-22 -10 -4 4 21 17 26 19 26 11z m-90 -50 c0 -2 -10 -9 -22 -15 -22 -11 -22
-10 -4 4 21 17 26 19 26 11z m-70 -40 c0 -2 -10 -9 -22 -15 -22 -11 -22 -10
-4 4 21 17 26 19 26 11z m-1946 -50 c3 -8 1 -15 -4 -15 -6 0 -10 7 -10 15 0 8
2 15 4 15 2 0 6 -7 10 -15z m1856 0 c0 -2 -10 -9 -22 -15 -22 -11 -22 -10 -4
4 21 17 26 19 26 11z m-1890 -31 c0 -8 -5 -12 -10 -9 -6 4 -8 11 -5 16 9 14
15 11 15 -7z m1820 -9 c0 -2 -13 -11 -30 -20 -38 -19 -40 -11 -2 9 31 17 32
18 32 11z m-1870 -46 c0 -5 6 -7 13 -3 9 6 9 4 -1 -8 -18 -23 -25 -68 -12 -83
8 -9 8 -15 0 -20 -5 -3 -10 1 -10 11 0 14 -3 14 -15 4 -14 -11 -14 -10 -6 14
6 14 8 26 5 26 -4 0 -1 7 6 15 10 12 10 19 2 27 -16 16 -15 28 3 28 8 0 15 -5
15 -11z m66 -17 c-17 -16 -18 -16 -5 5 7 12 15 20 18 17 3 -2 -3 -12 -13 -22z
m1714 13 c0 -2 -13 -11 -30 -20 -38 -19 -40 -11 -2 9 31 17 32 18 32 11z
m-1740 -31 c0 -8 -19 -13 -24 -6 -3 5 1 9 9 9 8 0 15 -2 15 -3z m1650 -19 c0
-2 -10 -9 -22 -15 -22 -11 -22 -10 -4 4 21 17 26 19 26 11z m-70 -40 c0 -2
-13 -11 -30 -20 -38 -19 -40 -11 -2 9 31 17 32 18 32 11z m-1673 -69 c0 -8 -6
-12 -15 -9 -11 5 -11 7 0 14 7 5 13 9 14 9 0 0 1 -6 1 -14z m27 -24 c3 -5 -1
-9 -9 -9 -8 0 -12 4 -9 9 3 4 7 8 9 8 2 0 6 -4 9 -8z m-99 -62 c3 -5 1 -10 -4
-10 -6 0 -11 5 -11 10 0 6 2 10 4 10 3 0 8 -4 11 -10z m75 -16 c0 -8 -5 -12
-10 -9 -6 4 -8 11 -5 16 9 14 15 11 15 -7z m1530 -69 c0 -3 -18 4 -40 15 -22
11 -40 23 -40 25 0 3 18 -4 40 -15 22 -11 40 -23 40 -25z m-1590 -10 c0 -12
-19 -12 -23 0 -4 9 -1 12 9 8 7 -3 14 -7 14 -8z m-65 -14 c-3 -5 -1 -12 5 -16
6 -4 8 -11 5 -16 -11 -17 -22 -9 -20 14 3 26 3 27 11 27 3 0 3 -4 -1 -9z m-45
-111 c0 -5 -5 -10 -11 -10 -5 0 -7 5 -4 10 3 6 8 10 11 10 2 0 4 -4 4 -10z"/>
<path d="M13041 3464 c0 -11 3 -14 6 -6 3 7 2 16 -1 19 -3 4 -6 -2 -5 -13z"/>
<path d="M13009 3468 c-6 -18 -3 -46 3 -42 5 4 7 12 4 19 -3 8 0 16 7 19 9 3
9 5 0 5 -7 1 -13 0 -14 -1z"/>
<path d="M12950 3375 c0 -9 -4 -14 -9 -10 -5 3 -13 0 -17 -7 -4 -7 -4 -10 1
-6 4 4 14 3 22 -3 7 -6 13 -10 14 -8 6 31 6 40 -2 45 -5 3 -9 -2 -9 -11z"/>
<path d="M13017 3363 c6 -16 5 -16 -10 -4 -24 20 -31 9 -7 -12 18 -15 20 -15
29 2 10 18 6 31 -10 31 -5 0 -5 -8 -2 -17z"/>
<path d="M12927 3309 c-3 -9 -1 -23 4 -30 7 -11 9 -11 9 -1 0 7 5 10 10 7 6
-3 10 -1 10 4 0 6 -5 11 -11 11 -8 0 -8 4 0 13 8 10 7 14 -3 14 -8 0 -17 -8
-19 -18z"/>
<path d="M12975 3310 c3 -5 13 -10 21 -10 8 0 12 5 9 10 -3 6 -13 10 -21 10
-8 0 -12 -4 -9 -10z"/>
<path d="M12900 3249 c0 -5 10 -9 22 -9 12 0 18 3 14 7 -10 11 -36 12 -36 2z"/>
<path d="M12880 3201 c4 -16 5 -33 2 -37 -4 -4 -1 -4 6 0 7 5 11 11 8 14 -3 3
-1 11 5 18 8 9 5 15 -10 23 -18 10 -19 9 -11 -18z"/>
<path d="M12856 3182 c-2 -4 -1 -14 4 -22 7 -11 9 -9 7 8 -1 24 -3 26 -11 14z"/>
<path d="M12834 3125 c-7 -17 3 -35 18 -35 7 0 6 5 -2 15 -6 8 -9 19 -5 25 3
5 4 10 0 10 -3 0 -8 -7 -11 -15z"/>
<path d="M12799 3108 c-7 -23 -5 -38 5 -38 6 0 12 9 12 20 0 16 -13 29 -17 18z"/>
<path d="M12750 3090 c0 -5 5 -10 11 -10 5 0 7 5 4 10 -3 6 -8 10 -11 10 -2 0
-4 -4 -4 -10z"/>
<path d="M12710 2941 c0 -6 4 -13 10 -16 6 -3 7 1 4 9 -7 18 -14 21 -14 7z"/>
<path d="M12668 2899 c18 -19 72 -21 65 -2 -3 8 -9 11 -12 6 -8 -10 -32 -10
-51 1 -12 7 -13 7 -2 -5z"/>
<path d="M12694 2852 c-6 -4 -14 -18 -18 -32 -5 -17 -4 -21 2 -11 8 11 11 11
16 0 3 -8 3 -4 0 8 -4 18 -2 22 10 17 12 -5 15 -2 10 10 -7 18 -6 18 -20 8z"/>
<path d="M12670 2780 c0 -5 5 -10 10 -10 6 0 10 5 10 10 0 6 -4 10 -10 10 -5
0 -10 -4 -10 -10z"/>
<path d="M12646 2745 c4 -8 11 -15 16 -15 6 0 5 6 -2 15 -7 8 -14 15 -16 15
-2 0 -1 -7 2 -15z"/>
<path d="M12680 2735 c0 -6 6 -17 13 -24 10 -11 9 -13 -3 -9 -8 3 -27 -1 -42
-8 -23 -12 -27 -11 -32 2 -5 12 -2 15 11 10 14 -6 15 -4 6 5 -6 6 -16 8 -22 5
-11 -7 -4 -34 15 -53 15 -15 28 -17 19 -4 -3 5 -1 13 5 16 6 4 9 2 8 -3 -2 -6
2 -10 7 -10 6 -1 9 5 7 13 -3 17 24 13 41 -5 10 -12 9 -12 -4 -2 -12 9 -18 6
-32 -17 -12 -20 -30 -32 -63 -40 -28 -7 -44 -16 -41 -24 5 -15 37 -22 37 -8 0
6 -7 7 -17 4 -11 -4 -14 -3 -9 5 9 15 43 15 52 0 5 -7 3 -8 -6 -3 -8 5 -11 3
-8 -6 3 -8 11 -13 17 -11 6 1 11 -2 11 -8 0 -14 -13 -13 -28 2 -9 9 -12 9 -12
0 0 -26 35 -25 87 3 29 16 53 33 53 38 0 4 4 6 8 3 5 -3 26 5 47 18 23 14 33
26 26 30 -6 4 -17 4 -23 0 -7 -4 -10 -3 -6 1 11 11 -63 54 -81 47 -10 -4 -12
-1 -6 8 5 8 4 11 -3 6 -6 -3 -15 2 -21 11 -6 10 -11 13 -11 8z m63 -75 c-3
-12 -8 -19 -11 -16 -5 6 5 36 12 36 2 0 2 -9 -1 -20z m-48 -30 c-2 -27 -15
-38 -15 -13 0 16 8 33 15 33 1 0 1 -9 0 -20z m-25 -24 c0 -3 -4 -8 -10 -11 -5
-3 -10 -1 -10 4 0 6 5 11 10 11 6 0 10 -2 10 -4z"/>
<path d="M12593 2657 c4 -10 2 -17 -5 -17 -6 0 -9 -3 -5 -6 3 -3 12 -2 20 3
13 7 13 10 -1 23 -14 13 -15 12 -9 -3z"/>
<path d="M12560 2641 c0 -8 -7 -11 -17 -6 -15 5 -16 4 -5 -6 9 -10 15 -10 24
-1 6 6 9 15 5 19 -4 3 -7 1 -7 -6z"/>
<path d="M12846 2618 c4 -7 3 -8 -4 -4 -11 7 -150 -68 -164 -88 -4 -6 -2 -17
5 -26 9 -12 8 -12 -8 1 -20 17 -50 15 -39 -2 3 -5 -2 -10 -10 -10 -29 -3 -34
-4 -42 -11 -4 -4 -1 -14 6 -23 11 -13 10 -15 -2 -10 -9 4 -18 -3 -25 -17 l-10
-23 -7 23 c-10 30 -19 28 -55 -13 -17 -19 -38 -35 -48 -36 -16 0 -15 -1 2 -8
12 -5 26 -4 35 3 13 10 13 9 1 -6 -7 -10 -18 -15 -23 -12 -13 9 -29 -17 -23
-37 6 -18 -20 -57 -31 -46 -5 4 -3 11 3 15 9 6 7 11 -7 19 -14 10 -19 9 -24
-2 -3 -8 0 -12 7 -9 8 3 13 -4 13 -16 0 -15 -5 -20 -18 -17 -10 3 -21 0 -25
-6 -3 -7 -3 -9 2 -5 9 9 35 -9 35 -24 0 -6 -6 -8 -12 -5 -7 2 -22 1 -33 -4
-16 -6 -13 -8 15 -9 19 -1 28 -4 20 -7 -31 -12 -41 -25 -29 -39 9 -11 8 -18
-2 -30 -12 -14 -14 -14 -25 1 -18 25 -49 12 -34 -14 5 -11 7 -26 4 -34 -3 -8
0 -18 7 -23 8 -5 10 -3 4 6 -6 9 -4 11 5 5 10 -6 9 -11 -5 -21 -13 -10 -22
-11 -31 -3 -9 7 -12 6 -9 -8 1 -10 8 -17 15 -15 6 1 8 -3 5 -9 -4 -6 -16 -8
-27 -6 -11 3 -21 0 -25 -9 -3 -8 -8 -12 -12 -10 -3 2 -6 -7 -6 -20 0 -27 17
-27 21 0 4 26 10 29 31 16 11 -7 12 -10 3 -7 -16 5 -21 -11 -24 -70 0 -13 -7
-23 -14 -23 -7 0 -11 -4 -7 -9 4 -8 416 -245 600 -346 l40 -22 385 216 c212
119 439 246 503 282 l118 65 -163 91 c-90 50 -179 99 -198 110 -19 11 -62 35
-95 53 -33 18 -134 74 -225 125 -91 51 -199 111 -241 133 -75 41 -117 54 -103
30z m-309 -208 c2 -11 0 -19 -5 -17 -4 1 -7 -2 -7 -8 0 -5 6 -9 12 -9 7 1 10
-2 7 -7 -8 -14 -19 -11 -43 10 -22 19 -22 19 -2 26 12 3 21 14 21 22 0 21 13
8 17 -17z m-17 -70 c0 -5 -5 -10 -11 -10 -5 0 -7 5 -4 10 3 6 8 10 11 10 2 0
4 -4 4 -10z m-60 -4 c0 -3 -4 -8 -10 -11 -5 -3 -10 -1 -10 4 0 6 5 11 10 11 6
0 10 -2 10 -4z m17 -37 c-1 -4 3 -6 8 -5 6 0 9 5 7 9 -1 5 2 6 8 2 8 -5 7 -11
-1 -21 -8 -10 -15 -11 -24 -4 -6 5 -14 8 -17 5 -2 -3 -5 1 -5 8 0 8 6 14 13
14 7 0 12 -4 11 -8z m-27 -33 c0 -2 -7 -6 -15 -10 -8 -3 -15 -1 -15 4 0 6 7
10 15 10 8 0 15 -2 15 -4z m-40 -16 c0 -5 -5 -10 -11 -10 -5 0 -7 5 -4 10 3 6
8 10 11 10 2 0 4 -4 4 -10z m44 -18 c2 -4 -1 -18 -8 -31 -8 -13 -16 -19 -19
-13 -4 5 0 16 9 23 14 12 14 14 -3 20 -16 7 -16 8 -1 8 9 1 19 -2 22 -7z m-39
-11 c3 -5 2 -12 -3 -15 -5 -3 -9 1 -9 9 0 17 3 19 12 6z m-25 -46 c0 -17 -2
-18 -25 -9 -13 5 -14 8 -3 15 19 13 28 11 28 -6z m26 -19 c0 -14 -3 -23 -7
-20 -6 3 -6 22 0 42 3 10 7 -2 7 -22z m-41 -16 c-3 -5 -2 -10 3 -10 6 0 8 -9
5 -20 -3 -11 -10 -20 -15 -20 -5 0 -6 -4 -3 -10 3 -5 2 -10 -4 -10 -5 0 -9 9
-8 19 0 11 6 17 12 13 5 -3 4 1 -2 9 -10 12 -10 18 -1 27 15 15 21 16 13 2z
m-35 -61 c0 -13 -21 10 -38 41 -12 23 -11 23 12 -3 15 -15 26 -33 26 -38z m85
31 c4 -6 1 -9 -7 -8 -7 2 -12 -3 -10 -10 1 -8 -2 -11 -8 -7 -8 5 -7 11 1 21
14 17 16 17 24 4z m-118 -92 c-3 -8 -6 -5 -6 6 -1 11 2 17 5 13 3 -3 4 -12 1
-19z m53 18 c0 -3 -4 -8 -10 -11 -5 -3 -10 -1 -10 4 0 6 5 11 10 11 6 0 10 -2
10 -4z m-66 -87 c-3 -5 -13 -9 -22 -8 -11 0 -12 2 -4 6 6 2 10 9 7 14 -4 5 1
6 9 3 9 -3 13 -10 10 -15z m-24 -29 c0 -5 -2 -10 -4 -10 -3 0 -8 5 -11 10 -3
6 -1 10 4 10 6 0 11 -4 11 -10z m20 -30 c0 -5 -8 -10 -17 -10 -15 0 -16 2 -3
10 19 12 20 12 20 0z"/>
<path d="M12545 2590 c3 -14 7 -29 8 -35 2 -5 9 -20 17 -31 11 -19 17 -20 37
-11 22 10 22 11 7 29 -10 10 -23 18 -30 18 -7 0 -21 12 -29 28 -16 26 -16 26
-10 2z m48 -54 c4 -10 1 -13 -8 -9 -8 3 -12 9 -9 14 7 12 11 11 17 -5z"/>
<path d="M12507 2575 c3 -10 1 -20 -6 -24 -9 -6 -8 -15 3 -36 8 -15 12 -34 9
-42 -5 -13 -3 -13 16 -2 11 8 21 17 21 22 0 4 5 5 10 2 6 -3 10 -1 10 5 0 6
-6 10 -12 9 -29 -5 -46 12 -42 41 3 15 0 31 -5 35 -7 4 -8 0 -4 -10z m28 -75
c3 -5 1 -10 -4 -10 -6 0 -11 5 -11 10 0 6 2 10 4 10 3 0 8 -4 11 -10z"/>
<path d="M12464 2554 c3 -3 1 -17 -4 -30 -7 -18 -6 -22 5 -18 14 6 15 38 2 49
-4 3 -5 2 -3 -1z"/>
<path d="M12553 2455 c-3 -9 -3 -18 -1 -21 3 -3 8 4 11 16 6 23 -1 27 -10 5z"/>
<path d="M12434 2449 c-3 -6 -2 -15 3 -20 5 -5 9 -1 9 11 0 23 -2 24 -12 9z"/>
<path d="M12320 2296 c0 -2 7 -9 15 -16 13 -11 14 -10 9 4 -5 14 -24 23 -24
12z"/>
<path d="M12300 2201 c0 -6 4 -13 10 -16 6 -3 7 1 4 9 -7 18 -14 21 -14 7z"/>
<path d="M12269 2163 c-13 -16 -12 -17 4 -4 16 13 21 21 13 21 -2 0 -10 -8
-17 -17z"/>
<path d="M12232 2085 c-11 -23 -10 -25 6 -16 9 5 21 8 27 8 5 -1 11 6 13 16 2
9 -2 17 -8 17 -6 0 -9 -4 -6 -9 3 -5 -1 -11 -9 -14 -9 -4 -12 -1 -8 9 9 24 -3
15 -15 -11z"/>
<path d="M12204 2036 c1 -8 5 -18 8 -22 4 -3 5 1 4 10 -1 8 -5 18 -8 22 -4 3
-5 -1 -4 -10z"/>
<path d="M12203 1933 c9 -2 17 -9 17 -14 0 -6 -4 -7 -10 -4 -5 3 -10 1 -10 -4
0 -17 18 -13 29 7 8 15 5 18 -17 19 -15 0 -19 -1 -9 -4z"/>
<path d="M12150 1864 c0 -7 5 -16 12 -20 7 -4 8 -3 4 4 -4 7 -2 12 3 12 6 0
11 4 11 8 0 5 -7 9 -15 9 -8 0 -15 -6 -15 -13z"/>
<path d="M12116 1853 c-6 -14 -5 -15 5 -6 7 7 10 15 7 18 -3 3 -9 -2 -12 -12z"/>
<path d="M12186 1861 c-11 -17 3 -46 25 -52 26 -8 25 -9 -9 -13 -13 -2 -26 3
-29 11 -3 7 -15 13 -27 13 -17 0 -18 2 -6 10 17 11 9 13 -14 4 -13 -5 -14 -10
-6 -20 7 -7 17 -12 23 -10 7 1 9 1 4 -1 -4 -3 -4 -10 0 -16 4 -7 1 -7 -9 1
-12 9 -18 10 -23 2 -9 -15 -1 -22 27 -25 13 -1 28 -3 34 -4 7 0 20 -13 30 -28
13 -20 13 -25 2 -16 -8 7 -18 10 -22 6 -4 -4 -4 0 0 10 7 18 -10 24 -21 7 -3
-5 -12 -10 -18 -10 -8 0 -8 3 1 9 10 6 8 10 -8 14 -13 3 -23 0 -27 -9 -3 -8
-9 -11 -14 -8 -5 3 -9 -1 -9 -9 0 -11 11 -14 43 -11 33 3 37 1 17 -5 -14 -5
-20 -10 -15 -10 6 -1 1 -8 -9 -16 -11 -8 -17 -18 -13 -21 4 -4 13 -1 21 5 10
8 16 9 21 1 3 -6 12 -7 18 -3 8 5 8 2 0 -9 -7 -8 -9 -19 -5 -23 4 -5 1 -5 -6
-1 -7 4 -10 11 -7 16 3 5 1 11 -5 15 -6 3 -14 -4 -18 -16 -8 -19 -9 -20 -15
-5 -4 10 -11 14 -17 11 -6 -4 -7 -12 -4 -18 4 -7 4 -9 0 -5 -4 3 -16 -2 -26
-12 -9 -9 -23 -19 -29 -21 -16 -6 -22 -60 -9 -76 5 -6 16 -9 24 -6 11 4 14 -1
10 -21 -2 -14 0 -28 5 -31 5 -4 9 -12 9 -18 0 -7 -5 -4 -10 5 -7 11 -19 15
-36 12 -17 -3 -23 -1 -19 6 4 6 13 9 21 6 21 -8 27 12 6 23 -15 8 -23 6 -37
-9 -10 -11 -20 -18 -23 -15 -3 3 -11 0 -19 -6 -7 -6 -22 -9 -34 -6 -16 4 -18
3 -8 -9 6 -7 15 -11 20 -8 5 3 9 -2 9 -11 0 -11 -6 -14 -25 -9 -15 4 -25 2
-25 -4 0 -6 -9 -9 -19 -7 -14 2 -18 -1 -15 -10 3 -8 14 -13 24 -12 10 1 17 4
14 8 -2 4 -1 10 4 13 4 2 9 -4 9 -15 1 -10 -5 -19 -13 -19 -17 0 -19 -16 -2
-26 7 -5 8 -2 3 7 -5 8 -4 11 0 6 5 -4 10 -20 11 -35 1 -15 0 -20 -2 -10 -3 9
-12 19 -21 22 -12 5 -13 4 -5 -7 15 -18 3 -30 -15 -16 -7 6 -13 8 -13 4 0 -4
8 -14 18 -21 15 -13 15 -14 -8 -11 -17 1 -25 -3 -25 -13 0 -8 -9 -23 -19 -32
-18 -17 -12 -24 17 -19 4 0 7 -3 7 -9 0 -5 -7 -10 -15 -10 -8 0 -15 -4 -15
-10 0 -6 10 -6 28 1 22 8 25 8 14 -3 -7 -7 -34 -13 -61 -13 -27 0 -48 -5 -48
-11 0 -6 10 -9 22 -6 13 2 26 -1 29 -7 4 -6 -1 -8 -13 -6 -14 2 -18 -1 -15
-10 3 -7 15 -12 26 -10 20 4 20 4 2 -16 -10 -11 -24 -17 -31 -15 -7 3 -15 1
-18 -5 -4 -5 -12 -7 -18 -3 -7 3 2 -7 18 -22 17 -15 30 -30 30 -33 0 -3 6 -5
14 -3 11 3 10 -1 -3 -13 -10 -11 -21 -14 -29 -8 -7 5 -25 10 -42 11 -29 2 -29
2 10 -17 22 -11 44 -17 49 -14 5 4 6 2 3 -4 -3 -5 8 -18 26 -28 18 -11 32 -19
32 -19 0 1 18 11 40 23 22 11 47 26 55 31 8 5 168 94 355 198 187 104 367 204
400 222 33 19 81 46 107 60 l48 26 -143 79 c-78 43 -162 90 -187 103 -25 14
-89 49 -143 79 -63 36 -104 53 -118 50 -16 -4 -18 -3 -8 9 11 13 2 19 -23 15
-5 0 -8 3 -8 8 0 12 -28 22 -34 12z m-83 -278 c-7 -3 -10 -10 -7 -18 3 -7 1
-15 -4 -18 -4 -3 -8 7 -8 23 0 21 3 27 15 22 9 -3 11 -7 4 -9z m-36 -49 c-3
-3 -12 -4 -19 -1 -8 3 -5 6 6 6 11 1 17 -2 13 -5z m-100 -121 c-3 -10 -5 -4
-5 12 0 17 2 24 5 18 2 -7 2 -21 0 -30z m80 7 c3 -10 2 -11 -4 -4 -4 6 -15 14
-23 17 -11 5 -9 6 4 4 11 -1 21 -9 23 -17z m-82 -79 c-6 -6 -35 27 -35 39 0 7
9 2 19 -11 11 -13 18 -26 16 -28z m-28 -43 c-3 -7 -5 -2 -5 12 0 14 2 19 5 13
2 -7 2 -19 0 -25z m-52 -34 c30 -32 31 -35 8 -27 -16 6 -16 5 -4 -10 7 -9 9
-17 3 -17 -5 0 -13 7 -16 16 -4 11 -13 14 -27 11 -16 -4 -18 -3 -8 9 6 7 15
11 20 8 5 -3 9 0 9 5 0 6 -4 11 -10 11 -5 0 -10 5 -10 10 0 16 9 12 35 -16z
m65 -4 c0 -5 -2 -10 -4 -10 -3 0 -8 5 -11 10 -3 6 -1 10 4 10 6 0 11 -4 11
-10z m-25 -50 c3 -5 1 -10 -4 -10 -6 0 -11 5 -11 10 0 6 2 10 4 10 3 0 8 -4
11 -10z m-78 -46 c-3 -3 -12 -4 -19 -1 -8 3 -5 6 6 6 11 1 17 -2 13 -5z m13
-28 c0 -3 -4 -8 -10 -11 -5 -3 -10 -1 -10 4 0 6 5 11 10 11 6 0 10 -2 10 -4z
m7 -98 c-3 -8 -6 -5 -6 6 -1 11 2 17 5 13 3 -3 4 -12 1 -19z m38 -27 c3 -5 2
-12 -3 -15 -5 -3 -9 1 -9 9 0 17 3 19 12 6z"/>
<path d="M12062 1778 c2 -5 8 -9 13 -9 5 0 11 4 13 9 1 5 -4 9 -13 9 -9 0 -14
-4 -13 -9z"/>
<path d="M12066 1734 c-8 -22 11 -44 38 -43 19 1 18 2 -4 8 -18 5 -24 14 -23
29 3 26 -2 29 -11 6z"/>
<path d="M12070 1669 c0 -5 -6 -7 -12 -3 -7 4 -10 4 -6 -1 4 -4 2 -15 -4 -23
-10 -12 -9 -14 6 -11 16 3 35 49 21 49 -3 0 -5 -5 -5 -11z"/>
<path d="M11979 1538 c-1 -4 -3 -12 -4 -18 -1 -5 -3 -15 -4 -21 0 -5 -5 -8 -9
-5 -5 3 -9 -1 -9 -9 0 -11 4 -12 14 -4 7 6 13 8 13 5 0 -4 10 2 22 14 12 11
18 23 14 27 -4 4 -11 1 -16 -7 -6 -8 -10 -10 -10 -4 0 5 5 15 10 20 7 7 6 11
-5 11 -8 0 -16 -4 -16 -9z"/>
<path d="M11936 1527 c3 -10 9 -15 12 -12 3 3 0 11 -7 18 -10 9 -11 8 -5 -6z"/>
<path d="M11817 1293 c-4 -3 -7 -13 -7 -21 0 -18 13 -7 16 13 2 17 1 18 -9 8z"/>
<path d="M11770 1240 c-9 -6 -10 -10 -3 -10 6 0 15 5 18 10 8 12 4 12 -15 0z"/>
<path d="M11745 1130 c-3 -6 1 -7 9 -4 18 7 21 14 7 14 -6 0 -13 -4 -16 -10z"/>
<path d="M11700 1064 c0 -2 18 -12 39 -23 l40 -19 -15 23 c-9 13 -25 23 -39
23 -14 0 -25 -2 -25 -4z"/>
<path d="M11673 1013 c9 -11 17 -25 17 -31 0 -6 9 -16 21 -22 11 -7 18 -18 15
-25 -3 -8 -1 -17 5 -20 5 -4 7 -11 4 -16 -4 -5 -3 -9 0 -9 10 0 85 40 85 46 0
3 -4 2 -10 -1 -5 -3 -10 -2 -10 4 0 5 -16 19 -36 32 -30 18 -38 19 -45 8 -7
-11 -9 -11 -9 2 0 9 -12 25 -27 34 -28 18 -28 18 -10 -2z m97 -58 c7 -8 8 -15
2 -15 -5 0 -15 7 -22 15 -7 8 -8 15 -2 15 5 0 15 -7 22 -15z"/>
<path d="M11647 976 c-4 -10 1 -12 15 -8 14 3 19 1 15 -6 -4 -5 -2 -12 5 -14
14 -5 19 -48 5 -45 -5 1 -12 -4 -15 -12 -3 -10 0 -11 9 -5 11 6 11 4 -1 -10
-8 -11 -16 -14 -18 -7 -2 7 -8 6 -18 -3 -14 -14 -50 -16 -70 -4 -5 4 -10 -2
-10 -12 0 -10 4 -16 8 -14 4 3 8 0 8 -5 0 -6 4 -11 10 -11 5 0 7 8 3 18 -5 14
-3 13 10 -3 10 -12 16 -15 17 -7 0 7 5 10 10 7 6 -3 10 -1 10 6 0 7 3 9 7 6 3
-4 15 1 26 10 10 10 21 17 23 16 12 -8 22 -1 27 18 3 13 0 22 -10 26 -8 3 -10
8 -5 12 6 3 1 17 -12 31 -26 29 -42 35 -49 16z"/>
<path d="M11639 934 c-9 -11 -9 -18 -1 -26 14 -14 42 -3 42 16 0 20 -27 27
-41 10z m27 -6 c4 -7 3 -8 -4 -4 -7 4 -12 2 -12 -5 0 -7 -3 -10 -6 -6 -6 5 3
27 11 27 2 0 7 -5 11 -12z"/>
<path d="M11621 884 c0 -11 3 -14 6 -6 3 7 2 16 -1 19 -3 4 -6 -2 -5 -13z"/>
<path d="M11498 664 c9 -7 20 -10 24 -8 5 3 8 0 8 -6 0 -6 4 -9 10 -5 18 11
-1 32 -30 32 -26 0 -27 -2 -12 -13z"/>
<path d="M11425 490 c-3 -5 -1 -10 4 -10 6 0 11 5 11 10 0 6 -2 10 -4 10 -3 0
-8 -4 -11 -10z"/>
<path d="M11225 250 c-3 -6 1 -7 9 -4 18 7 21 14 7 14 -6 0 -13 -4 -16 -10z"/>
<path d="M11193 185 c-1 -11 1 -14 4 -7 3 6 8 10 13 7 4 -3 10 1 13 8 3 7 -3
13 -12 13 -10 0 -17 -9 -18 -21z"/>
<path d="M11295 200 c-3 -5 -1 -10 4 -10 6 0 11 5 11 10 0 6 -2 10 -4 10 -3 0
-8 -4 -11 -10z"/>
<path d="M11140 130 c-13 -8 -12 -10 3 -10 9 0 17 5 17 10 0 12 -1 12 -20 0z"/>
<path d="M11214 132 c3 -5 0 -13 -6 -15 -9 -4 -10 -6 -1 -6 17 -1 25 16 12 25
-7 4 -9 3 -5 -4z"/>
<path d="M11239 113 c-1 -5 -1 -11 -1 -15 1 -3 -5 -9 -14 -12 -10 -4 -13 -1
-9 7 4 6 -1 3 -9 -7 -9 -11 -16 -15 -16 -8 0 7 -7 9 -17 5 -13 -5 -14 -8 -2
-12 17 -7 18 -33 1 -44 -28 -18 5 -25 140 -26 158 -1 156 -4 46 57 -32 18 -58
29 -58 25 0 -5 -4 -3 -8 2 -11 15 -52 36 -53 28z m-11 -63 c3 -9 -1 -11 -12
-7 -9 4 -15 3 -12 -1 2 -4 1 -14 -4 -22 -6 -10 -8 -6 -6 15 2 17 4 32 5 33 3
8 25 -6 29 -18z m37 -28 c-3 -3 -11 0 -18 7 -9 10 -8 11 6 5 10 -3 15 -9 12
-12z m-25 -8 c0 -2 -7 -4 -15 -4 -8 0 -15 4 -15 10 0 5 7 7 15 4 8 -4 15 -8
15 -10z"/>
<path d="M11110 99 c0 -5 5 -7 10 -4 6 3 10 8 10 11 0 2 -4 4 -10 4 -5 0 -10
-5 -10 -11z"/>
<path d="M11105 70 c3 -5 8 -10 11 -10 2 0 4 5 4 10 0 6 -5 10 -11 10 -5 0 -7
-4 -4 -10z"/>
<path d="M11085 30 c10 -11 20 -20 23 -20 3 0 -3 9 -13 20 -10 11 -20 20 -23
20 -3 0 3 -9 13 -20z"/>
<path d="M11134 39 c-3 -6 -2 -15 3 -20 5 -5 9 -1 10 11 2 22 -2 25 -13 9z"/>
</g>
</svg>
