<svg width="707" height="1188" viewBox="0 0 707 1188" fill="none" xmlns="http://www.w3.org/2000/svg">
<g clip-path="url(#clip0_5311_105998)">
<g clip-path="url(#clip1_5311_105998)">
<mask id="mask0_5311_105998" style="mask-type:alpha" maskUnits="userSpaceOnUse" x="-568" y="211" width="1246" height="943">
<rect x="-568" y="211" width="1246" height="943" fill="#C4C4C4"/>
</mask>
<g mask="url(#mask0_5311_105998)">
<g opacity="0.89">
<path opacity="0.09" d="M-791.939 794.117L33.338 1250.9" stroke="black"/>
<path opacity="0.09" d="M33.3429 349.247L-791.935 806.034" stroke="black"/>
<path opacity="0.09" d="M-734.493 762.322L90.7845 1219.1" stroke="black"/>
<path opacity="0.09" d="M90.7845 381.042L-734.493 837.824" stroke="black"/>
<path opacity="0.09" d="M-677.052 730.526L148.226 1187.31" stroke="black"/>
<path opacity="0.09" d="M148.231 412.837L-677.052 869.62" stroke="black"/>
<path opacity="0.09" d="M-619.61 698.736L205.667 1155.52" stroke="black"/>
<path opacity="0.09" d="M205.672 444.628L-619.61 901.415" stroke="black"/>
<path opacity="0.09" d="M-562.169 666.94L263.113 1123.72" stroke="black"/>
<path opacity="0.09" d="M263.113 476.424L-562.164 933.206" stroke="black"/>
<path opacity="0.09" d="M-504.723 635.145L320.555 1091.93" stroke="black"/>
<path opacity="0.09" d="M320.555 508.219L-504.723 965.002" stroke="black"/>
<path opacity="0.09" d="M-447.281 603.354L377.996 1060.14" stroke="black"/>
<path opacity="0.09" d="M378.001 540.01L-447.281 996.797" stroke="black"/>
<path opacity="0.09" d="M-389.84 571.559L435.442 1028.34" stroke="black"/>
<path opacity="0.09" d="M435.442 571.805L-389.835 1028.59" stroke="black"/>
<path opacity="0.09" d="M-332.399 539.763L492.884 996.551" stroke="black"/>
<path opacity="0.09" d="M492.883 603.601L-332.394 1060.38" stroke="black"/>
<path opacity="0.09" d="M-274.958 507.973L550.325 964.755" stroke="black"/>
<path opacity="0.09" d="M550.325 635.391L-274.953 1092.18" stroke="black"/>
<path opacity="0.09" d="M-217.511 476.177L607.767 932.96" stroke="black"/>
<path opacity="0.09" d="M607.771 667.187L-217.506 1123.97" stroke="black"/>
<path opacity="0.09" d="M-160.07 444.382L665.213 901.169" stroke="black"/>
<path opacity="0.09" d="M665.213 698.982L-160.065 1155.76" stroke="black"/>
<path opacity="0.09" d="M-102.629 412.591L722.654 869.373" stroke="black"/>
<path opacity="0.09" d="M722.654 730.773L-102.624 1187.56" stroke="black"/>
<path opacity="0.09" d="M-45.1875 380.795L780.095 837.578" stroke="black"/>
<path opacity="0.09" d="M780.095 762.568L-45.1821 1219.35" stroke="black"/>
<path opacity="0.09" d="M12.2588 349L837.536 805.788" stroke="black"/>
<path opacity="0.09" d="M837.542 794.364L12.2646 1251.15" stroke="black"/>
</g>
</g>
</g>
</g>
<defs>
<clipPath id="clip0_5311_105998">
<rect width="707" height="1188" fill="white"/>
</clipPath>
<clipPath id="clip1_5311_105998">
<rect width="1440" height="1187" fill="white"/>
</clipPath>
</defs>
</svg>
