<svg width="707" height="1188" viewBox="0 0 707 1188" fill="none" xmlns="http://www.w3.org/2000/svg">
<g clip-path="url(#clip0_5311_105998)">
<g clip-path="url(#clip1_5311_105998)">
<g filter="url(#filter0_d_5311_105998)">
<path d="M131.402 513.555V529.644L131.417 529.631C131.466 531.329 132.616 533.018 134.867 534.313L170.281 554.692C174.884 557.341 182.346 557.341 186.949 554.692L295.277 492.354C297.657 490.985 298.806 489.176 298.725 487.381V471.343L286.375 477.641L259.863 462.384C255.26 459.735 247.798 459.735 243.196 462.384L140.676 521.379L131.402 513.555Z" fill="url(#paint0_linear_5311_105998)"/>
</g>
<path d="M243.196 446.398L134.868 508.736C130.265 511.384 130.265 515.678 134.868 518.327L170.281 538.706C174.884 541.354 182.346 541.354 186.949 538.706L295.277 476.368C299.88 473.72 299.88 469.426 295.277 466.777L259.863 446.398C255.261 443.749 247.798 443.749 243.196 446.398Z" fill="#1E88E5"/>
<path d="M243.196 446.398L134.868 508.736C130.265 511.384 130.265 515.678 134.868 518.327L170.281 538.706C174.884 541.354 182.346 541.354 186.949 538.706L295.277 476.368C299.88 473.72 299.88 469.426 295.277 466.777L259.863 446.398C255.261 443.749 247.798 443.749 243.196 446.398Z" fill="url(#paint1_linear_5311_105998)" fill-opacity="0.5"/>
<mask id="mask0_5311_105998" style="mask-type:alpha" maskUnits="userSpaceOnUse" x="131" y="444" width="168" height="97">
<path d="M243.196 446.398L134.868 508.736C130.265 511.384 130.265 515.678 134.868 518.327L170.281 538.706C174.884 541.354 182.346 541.354 186.949 538.706L295.277 476.368C299.88 473.72 299.88 469.426 295.277 466.777L259.863 446.398C255.261 443.749 247.798 443.749 243.196 446.398Z" fill="#1E88E5"/>
<path d="M243.196 446.398L134.868 508.736C130.265 511.384 130.265 515.678 134.868 518.327L170.281 538.706C174.884 541.354 182.346 541.354 186.949 538.706L295.277 476.368C299.88 473.72 299.88 469.426 295.277 466.777L259.863 446.398C255.261 443.749 247.798 443.749 243.196 446.398Z" fill="url(#paint2_linear_5311_105998)"/>
</mask>
<g mask="url(#mask0_5311_105998)">
<path d="M159.512 363.882L151.887 368.27C113.723 390.231 113.723 425.838 151.887 447.799L159.512 452.187C197.676 474.149 259.552 474.149 297.715 452.187L305.341 447.799C343.504 425.838 343.504 390.232 305.341 368.27L297.715 363.882C259.552 341.921 197.676 341.921 159.512 363.882Z" stroke="url(#paint3_linear_5311_105998)"/>
<path d="M286.592 400.246L278.966 404.634C240.802 426.596 240.802 462.202 278.966 484.163L286.592 488.551C324.755 510.513 386.631 510.513 424.794 488.551L432.42 484.163C470.583 462.202 470.583 426.596 432.42 404.634L424.794 400.246C386.631 378.285 324.755 378.285 286.592 400.246Z" stroke="url(#paint4_linear_5311_105998)"/>
<path d="M215.209 501.396L213.362 502.459L218.456 505.391L217.435 505.978L212.34 503.046L210.509 504.101L209.679 503.623L214.379 500.919L215.209 501.396ZM217.715 503.237C217.284 502.988 216.982 502.715 216.808 502.419C216.632 502.121 216.606 501.83 216.731 501.546C216.853 501.26 217.115 501.002 217.517 500.771C218.11 500.429 218.783 500.262 219.534 500.27C220.289 500.276 220.997 500.453 221.658 500.799L221.895 500.93C222.329 501.18 222.633 501.451 222.806 501.745C222.982 502.037 223.008 502.326 222.884 502.613C222.762 502.899 222.497 503.159 222.09 503.393C221.469 503.751 220.765 503.918 219.978 503.897C219.192 503.872 218.453 503.661 217.764 503.265L217.715 503.237ZM218.79 502.716C219.243 502.978 219.692 503.128 220.136 503.169C220.579 503.208 220.967 503.131 221.301 502.939C221.634 502.747 221.763 502.523 221.687 502.267C221.614 502.01 221.326 501.736 220.824 501.448C220.379 501.191 219.93 501.044 219.477 501.005C219.027 500.964 218.638 501.038 218.31 501.227C217.986 501.413 217.859 501.635 217.927 501.892C217.992 502.148 218.28 502.423 218.79 502.716ZM220.654 497.828L221.724 498.443L222.501 497.995L223.233 498.417L222.456 498.864L224.914 500.279C225.083 500.376 225.237 500.427 225.378 500.433C225.519 500.437 225.675 500.389 225.846 500.29C225.96 500.225 226.062 500.151 226.152 500.068L226.917 500.508C226.754 500.674 226.568 500.817 226.358 500.937C225.599 501.374 224.8 501.351 223.962 500.869L221.468 499.433L220.743 499.851L220.011 499.429L220.735 499.012L219.665 498.396L220.654 497.828ZM230.293 498.579C230.166 498.556 229.991 498.498 229.769 498.408C229.783 498.778 229.561 499.094 229.106 499.357C228.663 499.611 228.176 499.746 227.645 499.761C227.113 499.777 226.662 499.678 226.289 499.464C225.82 499.194 225.634 498.887 225.732 498.544C225.83 498.197 226.203 497.837 226.851 497.464L227.457 497.115L227.168 496.949C226.941 496.818 226.695 496.75 226.432 496.745C226.166 496.739 225.903 496.811 225.642 496.961C225.417 497.091 225.289 497.23 225.26 497.378C225.228 497.525 225.298 497.648 225.472 497.748L224.483 498.317C224.241 498.178 224.096 498.002 224.047 497.79C223.996 497.576 224.047 497.356 224.202 497.13C224.359 496.901 224.608 496.69 224.947 496.495C225.462 496.199 226.003 496.036 226.57 496.01C227.135 495.982 227.655 496.101 228.133 496.366L230.119 497.509C230.515 497.736 230.887 497.887 231.234 497.959L231.303 497.998L230.293 498.579ZM228.495 498.794C228.69 498.682 228.826 498.549 228.902 498.396C228.981 498.242 228.983 498.094 228.91 497.951L228.08 497.473L227.547 497.78C227.18 497.991 226.969 498.186 226.912 498.365C226.855 498.545 226.943 498.702 227.176 498.836C227.366 498.946 227.581 498.997 227.819 498.991C228.058 498.982 228.284 498.916 228.495 498.794ZM233.224 496.893L232.235 497.462L225.984 493.865L226.973 493.296L233.224 496.893ZM237.561 494.397L236.536 494.987L230.611 491.577L231.637 490.987L237.561 494.397ZM235.246 490.662L235.783 490.938C235.715 490.524 235.946 490.165 236.475 489.861C237.392 489.333 238.383 489.367 239.45 489.962L242.359 491.636L241.37 492.205L238.518 490.563C238.238 490.403 237.971 490.319 237.716 490.313C237.461 490.303 237.196 490.378 236.923 490.535C236.523 490.765 236.407 491.039 236.572 491.36L239.706 493.163L238.717 493.732L234.314 491.198L235.246 490.662ZM244.471 489.606C244.718 489.463 244.85 489.304 244.87 489.128C244.889 488.952 244.798 488.799 244.597 488.671L245.529 488.135C245.792 488.299 245.963 488.496 246.042 488.725C246.117 488.953 246.088 489.186 245.952 489.423C245.817 489.66 245.59 489.87 245.272 490.053C244.657 490.407 243.969 490.573 243.21 490.552C242.45 490.53 241.719 490.317 241.017 489.912L240.915 489.854C240.244 489.468 239.887 489.057 239.844 488.62C239.798 488.181 240.085 487.784 240.703 487.428C241.227 487.127 241.806 486.97 242.441 486.957C243.075 486.942 243.649 487.072 244.162 487.348L243.23 487.884C242.967 487.746 242.672 487.676 242.347 487.676C242.024 487.675 241.737 487.746 241.488 487.889C241.168 488.073 241.038 488.283 241.098 488.517C241.154 488.749 241.417 489.002 241.887 489.275L242.045 489.367C242.523 489.642 242.965 489.798 243.373 489.835C243.779 489.869 244.146 489.793 244.471 489.606ZM245.305 487.36C244.874 487.112 244.571 486.839 244.397 486.543C244.222 486.245 244.195 485.953 244.32 485.669C244.442 485.384 244.705 485.125 245.105 484.894C245.7 484.552 246.372 484.385 247.124 484.393C247.878 484.399 248.587 484.576 249.248 484.922L249.485 485.053C249.919 485.303 250.222 485.575 250.396 485.868C250.572 486.16 250.598 486.45 250.473 486.737C250.351 487.023 250.087 487.283 249.68 487.517C249.058 487.874 248.355 488.042 247.567 488.02C246.781 487.995 246.043 487.785 245.354 487.388L245.305 487.36ZM246.38 486.84C246.833 487.101 247.282 487.251 247.726 487.292C248.169 487.331 248.557 487.255 248.89 487.063C249.224 486.871 249.352 486.646 249.277 486.39C249.203 486.133 248.916 485.86 248.414 485.571C247.969 485.315 247.52 485.167 247.067 485.128C246.617 485.088 246.227 485.162 245.899 485.351C245.576 485.537 245.449 485.758 245.517 486.016C245.582 486.272 245.87 486.547 246.38 486.84ZM249.004 482.745L249.493 482.993C249.441 482.607 249.684 482.26 250.221 481.951C250.809 481.612 251.437 481.51 252.105 481.644C251.975 481.201 252.2 480.812 252.781 480.478C253.266 480.198 253.761 480.068 254.266 480.087C254.773 480.104 255.291 480.262 255.82 480.56L258.713 482.225L257.724 482.794L254.86 481.145C254.58 480.984 254.315 480.902 254.062 480.897C253.81 480.892 253.542 480.971 253.261 481.133C253.036 481.263 252.912 481.404 252.89 481.557C252.869 481.707 252.927 481.855 253.065 482L256.088 483.735L255.1 484.304L252.202 482.637C251.671 482.346 251.147 482.35 250.632 482.646C250.236 482.874 250.117 483.129 250.274 483.41L253.464 485.245L252.475 485.814L248.073 483.281L249.004 482.745ZM261.749 480.571C261.122 480.932 260.417 481.112 259.633 481.11C258.849 481.105 258.128 480.914 257.472 480.536L257.35 480.466C256.91 480.213 256.602 479.939 256.427 479.644C256.25 479.346 256.219 479.053 256.333 478.766C256.447 478.479 256.692 478.227 257.069 478.01C257.669 477.665 258.323 477.509 259.031 477.541C259.742 477.573 260.447 477.79 261.147 478.192L261.545 478.422L258.669 480.077C259.062 480.269 259.47 480.365 259.893 480.365C260.319 480.364 260.694 480.27 261.017 480.084C261.469 479.824 261.655 479.506 261.574 479.131L262.616 479.117C262.703 479.37 262.671 479.624 262.522 479.878C262.373 480.13 262.116 480.361 261.749 480.571ZM257.859 478.469C257.587 478.625 257.463 478.806 257.485 479.012C257.509 479.216 257.667 479.429 257.961 479.651L259.845 478.567L259.772 478.525C259.419 478.347 259.081 478.254 258.758 478.246C258.432 478.237 258.132 478.311 257.859 478.469Z" fill="#E3F2FD"/>
<path d="M203.046 495.083C202.749 494.913 202.431 494.825 202.091 494.821C201.751 494.813 201.31 494.879 200.767 495.021C200.225 495.162 199.738 495.274 199.307 495.355C198.874 495.434 198.46 495.479 198.065 495.489C197.671 495.496 197.287 495.458 196.915 495.377C196.546 495.293 196.184 495.15 195.829 494.946C195.218 494.594 194.913 494.193 194.913 493.744C194.913 493.294 195.204 492.864 195.786 492.454L194.625 491.786L195.493 491.287L196.671 491.964C197.401 491.648 198.17 491.514 198.977 491.561C199.78 491.607 200.533 491.833 201.239 492.239L199.671 493.142C199.237 492.891 198.823 492.757 198.428 492.739C198.035 492.715 197.687 492.791 197.387 492.963C197.09 493.134 196.946 493.315 196.953 493.507C196.956 493.696 197.107 493.876 197.404 494.047C197.678 494.205 197.979 494.286 198.304 494.29C198.63 494.294 199.094 494.223 199.699 494.075C200.306 493.925 200.827 493.815 201.261 493.744C201.691 493.671 202.1 493.635 202.487 493.638C202.87 493.638 203.238 493.68 203.589 493.766C203.936 493.849 204.274 493.986 204.603 494.175C205.218 494.528 205.525 494.926 205.525 495.368C205.525 495.809 205.224 496.243 204.619 496.67L205.699 497.291L204.837 497.787L203.762 497.169C202.941 497.55 202.104 497.73 201.25 497.709C200.396 497.684 199.598 497.459 198.857 497.032L200.425 496.129C200.856 496.377 201.288 496.509 201.722 496.526C202.157 496.539 202.565 496.434 202.948 496.213C203.266 496.03 203.435 495.838 203.453 495.636C203.468 495.432 203.331 495.248 203.046 495.083ZM213.17 491.649L207.755 494.765L206.681 494.147L206.513 491.109C206.48 490.686 206.404 490.345 206.285 490.085C206.169 489.822 205.983 489.617 205.726 489.47C205.375 489.268 205.012 489.161 204.636 489.148C204.256 489.133 203.901 489.221 203.572 489.41C203.217 489.614 203.06 489.846 203.1 490.107C203.14 490.363 203.359 490.605 203.756 490.834L202.183 491.739C201.702 491.463 201.376 491.144 201.206 490.784C201.04 490.422 201.055 490.056 201.25 489.685C201.442 489.312 201.804 488.973 202.335 488.667C203.149 488.199 203.975 487.948 204.815 487.915C205.658 487.879 206.436 488.067 207.148 488.477C207.538 488.702 207.835 488.989 208.038 489.338C208.24 489.688 208.365 490.16 208.412 490.753L208.509 492.876L211.906 490.921L213.17 491.649ZM216.187 486.154C217.279 486.782 217.888 487.393 218.015 487.987C218.142 488.58 217.77 489.127 216.898 489.629C216.037 490.124 215.095 490.34 214.071 490.275C213.047 490.211 212 489.877 210.929 489.273L209.476 488.436C208.372 487.801 207.763 487.188 207.647 486.597C207.535 486.004 207.909 485.46 208.77 484.964C209.631 484.469 210.573 484.253 211.597 484.318C212.617 484.38 213.662 484.713 214.733 485.317L216.187 486.154ZM213.024 486.138C212.369 485.761 211.803 485.54 211.326 485.473C210.848 485.402 210.419 485.476 210.039 485.695C209.67 485.907 209.541 486.147 209.649 486.413C209.758 486.675 210.108 486.983 210.702 487.337L212.622 488.442C213.266 488.813 213.832 489.039 214.321 489.12C214.809 489.197 215.246 489.124 215.633 488.901C216.017 488.681 216.143 488.435 216.014 488.165C215.883 487.894 215.512 487.579 214.901 487.218L213.024 486.138ZM217.467 483.831L218.303 483.35C218.701 483.121 218.896 482.894 218.889 482.669C218.882 482.445 218.714 482.238 218.384 482.048C218.066 481.865 217.722 481.777 217.354 481.786C216.988 481.792 216.639 481.891 216.306 482.082C216.006 482.255 215.838 482.448 215.802 482.66C215.762 482.87 215.874 483.051 216.138 483.203L214.57 484.106C214.158 483.868 213.899 483.593 213.794 483.278C213.69 482.96 213.743 482.633 213.957 482.298C214.174 481.961 214.523 481.654 215.004 481.377C215.84 480.896 216.695 480.635 217.571 480.593C218.443 480.549 219.229 480.729 219.931 481.133C220.293 481.341 220.515 481.596 220.598 481.898C220.681 482.2 220.625 482.501 220.43 482.801C221.033 482.636 221.604 482.583 222.139 482.641C222.678 482.698 223.164 482.851 223.599 483.1C224.3 483.504 224.606 483.976 224.515 484.515C224.429 485.052 223.964 485.563 223.121 486.048C222.333 486.501 221.479 486.753 220.56 486.803C219.645 486.851 218.846 486.678 218.162 486.285L219.73 485.383C220.026 485.553 220.379 485.629 220.788 485.611C221.2 485.59 221.569 485.486 221.895 485.298C222.268 485.084 222.461 484.86 222.475 484.627C222.49 484.39 222.334 484.177 222.009 483.99C221.22 483.536 220.392 483.559 219.523 484.059L218.694 484.537L217.467 483.831ZM226.74 481.13V481.78L228.531 482.81L226.962 483.712L218.629 478.917L220.196 478.014L224.814 480.671L224.727 480.272L224.466 478.392L226.349 477.309L226.675 479.938L232.405 480.581L230.603 481.617L226.74 481.13Z" fill="white"/>
<path d="M172.365 499.146L154.311 509.535C150.859 511.521 150.859 514.742 154.311 516.728L172.365 527.117C175.817 529.104 181.413 529.104 184.865 527.117L202.919 516.728C206.371 514.742 206.371 511.521 202.919 509.535L184.865 499.146C181.413 497.159 175.817 497.159 172.365 499.146Z" fill="#1565C0"/>
<g opacity="0.2">
<path opacity="0.2" d="M177.921 507.137L168.199 512.732C167.816 512.952 167.816 513.31 168.199 513.531L177.921 519.126C178.305 519.346 178.926 519.346 179.31 519.126L189.032 513.531C189.415 513.31 189.415 512.952 189.032 512.732L179.31 507.137C178.926 506.917 178.305 506.917 177.921 507.137Z" stroke="white" stroke-width="1.5" stroke-linecap="round" stroke-linejoin="round"/>
<path opacity="0.2" d="M170.282 514.729L181.393 508.336" stroke="white" stroke-width="1.5" stroke-linecap="round" stroke-linejoin="round"/>
<path opacity="0.2" d="M170.282 511.533L173.06 513.131" stroke="white" stroke-width="1.5" stroke-linecap="round" stroke-linejoin="round"/>
</g>
<path d="M177.921 501.544L168.199 507.139C167.816 507.36 167.816 507.718 168.199 507.938L177.921 513.533C178.305 513.753 178.926 513.753 179.31 513.533L189.032 507.938C189.415 507.718 189.415 507.36 189.032 507.139L179.31 501.544C178.926 501.324 178.305 501.324 177.921 501.544Z" stroke="white" stroke-width="1.5" stroke-linecap="round" stroke-linejoin="round"/>
<path d="M170.282 509.137L181.393 502.743" stroke="white" stroke-width="1.5" stroke-linecap="round" stroke-linejoin="round"/>
<path d="M170.282 505.94L173.06 507.539" stroke="white" stroke-width="1.5" stroke-linecap="round" stroke-linejoin="round"/>
</g>
</g>
</g>
<defs>
<filter id="filter0_d_5311_105998" x="67.4023" y="450.397" width="295.326" height="224.281" filterUnits="userSpaceOnUse" color-interpolation-filters="sRGB">
<feFlood flood-opacity="0" result="BackgroundImageFix"/>
<feColorMatrix in="SourceAlpha" type="matrix" values="0 0 0 0 0 0 0 0 0 0 0 0 0 0 0 0 0 0 127 0" result="hardAlpha"/>
<feOffset dy="54"/>
<feGaussianBlur stdDeviation="32"/>
<feColorMatrix type="matrix" values="0 0 0 0 0.317647 0 0 0 0 0.556863 0 0 0 0 0.972549 0 0 0 0.5 0"/>
<feBlend mode="normal" in2="BackgroundImageFix" result="effect1_dropShadow_5311_105998"/>
<feBlend mode="normal" in="SourceGraphic" in2="effect1_dropShadow_5311_105998" result="shape"/>
</filter>
<linearGradient id="paint0_linear_5311_105998" x1="291.702" y1="467.8" x2="159.393" y2="545.943" gradientUnits="userSpaceOnUse">
<stop stop-color="#58B4FF"/>
<stop offset="1" stop-color="#C4E5FF"/>
</linearGradient>
<linearGradient id="paint1_linear_5311_105998" x1="126.534" y1="507.654" x2="202.049" y2="554.077" gradientUnits="userSpaceOnUse">
<stop stop-color="white"/>
<stop offset="1" stop-color="white" stop-opacity="0"/>
</linearGradient>
<linearGradient id="paint2_linear_5311_105998" x1="138.045" y1="512.984" x2="217.601" y2="553.596" gradientUnits="userSpaceOnUse">
<stop stop-color="white"/>
<stop offset="1" stop-color="white" stop-opacity="0"/>
</linearGradient>
<linearGradient id="paint3_linear_5311_105998" x1="36.3525" y1="434.755" x2="296.425" y2="481.426" gradientUnits="userSpaceOnUse">
<stop stop-color="#90CAF9"/>
<stop offset="1" stop-color="#90CAF9" stop-opacity="0"/>
</linearGradient>
<linearGradient id="paint4_linear_5311_105998" x1="225.93" y1="294.494" x2="259.986" y2="515.958" gradientUnits="userSpaceOnUse">
<stop stop-color="#90CAF9"/>
<stop offset="1" stop-color="#90CAF9" stop-opacity="0"/>
</linearGradient>
<clipPath id="clip0_5311_105998">
<rect width="707" height="1188" fill="white"/>
</clipPath>
<clipPath id="clip1_5311_105998">
<rect width="336" height="239" fill="white" transform="translate(47 412)"/>
</clipPath>
</defs>
</svg>
