<svg width="707" height="1188" viewBox="0 0 707 1188" fill="none" xmlns="http://www.w3.org/2000/svg">
<g clip-path="url(#clip0_5311_105998)">
<g filter="url(#filter0_d_5311_105998)">
<path d="M326.923 643.776L314.345 635.101V649.84C314.336 649.989 314.336 650.138 314.345 650.287V650.297C314.443 651.859 315.525 653.403 317.589 654.595L348.078 674.852C352.413 677.355 359.442 677.355 363.777 674.852L403.875 649.043C406.145 647.733 407.226 645.996 407.119 644.28V630.77L394.129 636.727L372.995 624.526C368.659 622.023 361.631 622.023 357.295 624.526L326.923 643.776Z" fill="url(#paint0_linear_5311_105998)"/>
</g>
<rect x="0.864882" width="62.3654" height="52.4135" rx="11.5" transform="matrix(0.864882 -0.501975 0.864882 0.501975 310.117 636.242)" fill="#61DAFB"/>
<rect x="0.864882" width="62.3654" height="52.4135" rx="11.5" transform="matrix(0.864882 -0.501975 0.864882 0.501975 310.117 636.242)" fill="url(#paint1_linear_5311_105998)"/>
<rect x="0.864882" width="62.3654" height="52.4135" rx="11.5" transform="matrix(0.864882 -0.501975 0.864882 0.501975 310.117 636.242)" stroke="#E3F2FD"/>
<path d="M361.889 637.808C361.673 637.98 361.474 638.144 361.263 638.303C361.101 638.425 360.927 638.542 360.752 638.659C360.207 639.021 359.671 639.388 359.107 639.739C358.741 639.968 358.323 640.168 357.943 640.39C357.404 640.704 356.771 640.917 356.157 641.156C355.607 641.369 355.042 641.513 354.461 641.572C353.748 641.645 353.099 641.604 352.556 641.398C352.12 641.233 351.831 640.998 351.57 640.742C350.94 640.123 350.804 639.372 350.73 638.608C350.687 638.17 350.724 637.716 350.748 637.266C350.757 637.082 350.825 636.89 350.87 636.69C350.747 636.695 350.646 636.701 350.548 636.702C349.683 636.707 348.808 636.733 347.959 636.708C347.312 636.689 346.681 636.626 346.078 636.54C345.462 636.453 344.87 636.331 344.303 636.189C343.873 636.083 343.534 635.904 343.222 635.704C342.709 635.377 342.558 634.958 342.706 634.465C342.773 634.241 342.949 634.008 343.12 633.785C343.379 633.45 343.732 633.133 344.161 632.843C344.484 632.625 344.825 632.414 345.15 632.197C345.838 631.737 346.634 631.352 347.453 630.985C348.042 630.722 348.645 630.472 349.245 630.22C349.402 630.154 349.471 630.101 349.397 630.005C348.821 629.256 348.492 628.435 348.376 627.562C348.323 627.165 348.338 626.748 348.421 626.333C348.48 626.038 348.651 625.723 348.873 625.429C349.049 625.196 349.291 624.965 349.622 624.752C350.387 624.259 351.284 624.048 352.243 623.92C353.142 623.801 353.989 623.835 354.82 623.881C355.409 623.913 355.963 624.009 356.52 624.092C356.973 624.159 357.415 624.239 357.847 624.331C358.276 624.421 358.687 624.533 359.126 624.641C359.256 624.537 359.379 624.432 359.516 624.332C359.924 624.036 360.329 623.737 360.752 623.447C361.146 623.176 361.546 622.906 361.969 622.65C362.563 622.291 363.204 621.965 363.882 621.661C364.619 621.33 365.384 621.068 366.213 620.935C366.624 620.869 367.068 620.817 367.442 620.845C367.826 620.874 368.206 620.934 368.519 621.074C368.917 621.252 369.197 621.478 369.454 621.726C369.975 622.231 370.146 622.833 370.224 623.456C370.29 623.984 370.28 624.527 370.273 625.067C370.271 625.279 370.188 625.503 370.135 625.748C370.374 625.745 370.598 625.742 370.822 625.741C371.426 625.738 372.036 625.722 372.63 625.737C373.268 625.754 373.904 625.782 374.516 625.841C375.139 625.902 375.737 625.998 376.298 626.139C376.767 626.257 377.196 626.402 377.558 626.599C378.233 626.966 378.547 627.446 378.258 628.082C378.135 628.352 377.99 628.632 377.667 628.891C377.35 629.146 377.088 629.42 376.763 629.671C376.502 629.873 376.198 630.061 375.887 630.24C375.397 630.522 374.897 630.8 374.378 631.063C373.904 631.303 373.403 631.523 372.908 631.746C372.473 631.943 372.029 632.132 371.562 632.336C371.696 632.535 371.855 632.737 371.972 632.952C372.42 633.77 372.711 634.625 372.69 635.553C372.679 636.054 372.502 636.562 372.108 637.064C371.792 637.467 371.304 637.811 370.628 638.079C370.064 638.303 369.485 638.456 368.893 638.508C368.217 638.568 367.543 638.588 366.882 638.593C366.44 638.596 366.011 638.555 365.594 638.508C365.185 638.463 364.799 638.386 364.403 638.323C364.154 638.284 363.898 638.252 363.659 638.203C363.296 638.129 362.945 638.043 362.589 637.962C362.367 637.912 362.142 637.864 361.889 637.808ZM359.855 628.029C358.889 628.258 357.912 628.501 356.928 628.717C356.614 628.786 356.468 628.909 356.354 629.053C356.078 629.403 355.819 629.757 355.569 630.11C355.241 630.575 354.924 631.041 354.609 631.507C354.523 631.636 354.461 631.767 354.387 631.897C354.264 632.112 354.137 632.326 354.021 632.541C354.001 632.58 354.004 632.63 354.035 632.657C354.172 632.777 354.313 632.896 354.472 633.004C354.79 633.219 355.117 633.428 355.447 633.637C355.843 633.887 356.247 634.133 356.647 634.381C356.713 634.422 356.772 634.467 356.845 634.504C357.157 634.659 357.485 634.804 357.779 634.969C357.875 635.023 357.959 635.029 358.094 635.004C358.92 634.848 359.749 634.71 360.57 634.534C361.777 634.276 362.979 633.993 364.182 633.716C364.282 633.693 364.421 633.646 364.463 633.597C364.689 633.334 364.892 633.067 365.098 632.801C365.33 632.501 365.576 632.202 365.781 631.899C366.059 631.489 366.306 631.075 366.564 630.662C366.607 630.593 366.633 630.523 366.674 630.454C366.784 630.265 366.902 630.077 367.008 629.888C367.024 629.859 367.002 629.822 366.974 629.8C366.786 629.658 366.598 629.516 366.399 629.379C366.058 629.144 365.71 628.914 365.365 628.682C365.247 628.602 365.137 628.517 365.008 628.445C364.668 628.253 364.32 628.066 363.973 627.878C363.725 627.744 363.478 627.607 363.219 627.479C363.165 627.452 363.055 627.44 362.975 627.455C361.94 627.641 360.905 627.834 359.855 628.029ZM370.98 631.561C371.172 631.469 371.32 631.392 371.475 631.324C371.993 631.095 372.525 630.878 373.029 630.638C373.521 630.405 373.986 630.149 374.462 629.903C375.055 629.595 375.563 629.248 376.007 628.871C376.254 628.662 376.491 628.45 376.615 628.217C376.767 627.933 376.729 627.692 376.486 627.482C376.264 627.29 375.924 627.184 375.58 627.087C375.216 626.986 374.812 626.916 374.403 626.862C373.833 626.788 373.257 626.712 372.656 626.69C371.866 626.663 371.05 626.685 370.244 626.691C369.918 626.693 369.921 626.703 369.858 626.894C369.728 627.283 369.599 627.673 369.442 628.062C369.272 628.482 369.071 628.902 368.881 629.322C368.838 629.417 368.838 629.496 368.937 629.563C369.076 629.655 369.204 629.754 369.32 629.858C369.578 630.089 369.839 630.319 370.076 630.559C370.291 630.777 370.476 631.007 370.676 631.232C370.771 631.339 370.871 631.444 370.98 631.561ZM352.446 636.612C352.431 636.716 352.412 636.81 352.406 636.902C352.374 637.381 352.312 637.866 352.328 638.337C352.343 638.767 352.426 639.186 352.662 639.57C352.902 639.959 353.063 640.379 353.732 640.575C353.862 640.613 354.009 640.651 354.164 640.65C355.021 640.642 355.787 640.355 356.511 640.025C356.994 639.805 357.436 639.548 357.887 639.302C358.16 639.153 358.428 638.999 358.674 638.835C358.988 638.625 359.277 638.404 359.575 638.187C359.914 637.94 360.251 637.692 360.597 637.439C360.452 637.379 360.338 637.325 360.211 637.281C359.882 637.168 359.539 637.066 359.218 636.947C358.914 636.833 358.626 636.707 358.338 636.581C357.999 636.432 357.675 636.271 357.327 636.128C357.239 636.092 357.087 636.079 356.961 636.093C355.908 636.216 354.853 636.351 353.799 636.475C353.355 636.528 352.911 636.565 352.446 636.612ZM360.409 625.013C360.975 625.217 361.5 625.404 362.021 625.595C362.136 625.637 362.232 625.693 362.342 625.739C362.666 625.874 363.012 625.994 363.312 626.143C363.597 626.286 363.872 626.407 364.354 626.321C364.71 626.257 365.07 626.208 365.427 626.169C366.338 626.069 367.249 625.979 368.159 625.884C368.29 625.871 368.421 625.858 368.566 625.843C368.59 625.643 368.627 625.458 368.631 625.277C368.643 624.762 368.696 624.238 368.626 623.738C368.573 623.355 368.374 622.999 368.207 622.64C368.076 622.356 367.852 622.107 367.465 621.929C367.064 621.746 366.566 621.758 366.019 621.883C365.767 621.941 365.516 622.028 365.28 622.12C364.843 622.291 364.394 622.457 363.995 622.659C363.53 622.893 363.115 623.165 362.674 623.418C362.075 623.763 361.554 624.141 361.054 624.529C360.847 624.69 360.632 624.847 360.409 625.013ZM350.023 630.892C349.62 631.069 349.251 631.226 348.891 631.392C348.34 631.645 347.784 631.894 347.253 632.162C346.817 632.382 346.413 632.626 345.999 632.862C345.845 632.95 345.682 633.038 345.555 633.137C345.282 633.351 345.037 633.576 344.765 633.791C344.09 634.325 344.169 634.977 344.958 635.216C345.269 635.311 345.583 635.408 345.927 635.469C346.477 635.567 347.043 635.65 347.623 635.71C348.076 635.757 348.553 635.773 349.03 635.779C349.502 635.786 349.987 635.762 350.466 635.755C350.655 635.752 350.84 635.758 351.037 635.761C351.092 635.627 351.141 635.516 351.182 635.404C351.326 635.015 351.454 634.626 351.613 634.237C351.768 633.856 351.958 633.475 352.122 633.094C352.146 633.04 352.145 632.972 352.104 632.933C351.947 632.786 351.759 632.652 351.602 632.505C351.288 632.213 350.978 631.92 350.682 631.62C350.456 631.39 350.255 631.149 350.023 630.892ZM358.098 625.51C357.875 625.457 357.677 625.407 357.474 625.362C356.997 625.257 356.53 625.139 356.034 625.057C355.496 624.968 354.933 624.908 354.374 624.846C354.106 624.817 353.829 624.79 353.544 624.798C353.035 624.813 352.517 624.856 352.003 624.887C351.409 624.921 350.911 625.11 350.542 625.416C350.355 625.571 350.215 625.76 350.15 625.932C349.979 626.38 349.907 626.822 349.97 627.248C350.036 627.697 350.166 628.129 350.402 628.536C350.595 628.87 350.763 629.212 350.946 629.56C351.06 629.526 351.141 629.507 351.215 629.48C351.407 629.409 351.59 629.323 351.787 629.263C352.885 628.929 353.988 628.603 355.086 628.269C355.357 628.187 355.591 628.088 355.735 627.902C355.961 627.611 356.229 627.324 356.505 627.041C356.849 626.689 357.216 626.341 357.577 625.993C357.736 625.839 357.906 625.688 358.098 625.51ZM362.905 636.929C363.304 637.026 363.669 637.116 364.037 637.203C364.116 637.221 364.209 637.226 364.291 637.242C364.669 637.317 365.038 637.403 365.426 637.466C365.698 637.51 365.994 637.529 366.284 637.551C366.806 637.59 367.321 637.642 367.857 637.652C368.41 637.663 368.986 637.588 369.564 637.46C370.218 637.316 370.577 637.018 370.78 636.676C371.079 636.174 371.062 635.689 371.026 635.216C371.001 634.899 370.871 634.599 370.755 634.299C370.63 633.975 370.474 633.659 370.318 633.343C370.242 633.189 370.136 633.044 370.037 632.886C369.36 633.118 368.721 633.351 368.067 633.558C367.426 633.762 366.772 633.947 366.118 634.127C365.727 634.234 365.332 634.32 365.231 634.61C365.225 634.626 365.203 634.643 365.187 634.66C364.839 635.023 364.49 635.385 364.144 635.748C364.069 635.826 364.012 635.909 363.931 635.986C363.599 636.295 363.261 636.603 362.905 636.929ZM361.607 636.54C362.015 636.253 363.26 635.007 363.285 634.869C361.995 635.141 360.702 635.414 359.354 635.698C360.075 636.02 360.829 636.289 361.607 636.54ZM361.663 626.727C360.886 626.44 360.153 626.169 359.372 625.88C358.782 626.456 358.224 626.999 357.666 627.543C357.684 627.548 357.701 627.554 357.718 627.559C359.008 627.287 360.297 627.015 361.663 626.727ZM369.456 632.092C369.015 631.635 368.59 631.194 368.142 630.73C367.606 631.517 367.089 632.275 366.563 633.047C367.531 632.739 368.508 632.484 369.456 632.092ZM352.855 631.711C353.389 630.932 353.906 630.177 354.424 629.422C354.408 629.415 354.392 629.408 354.376 629.401C353.445 629.706 352.514 630.01 351.528 630.333C351.976 630.799 352.409 631.248 352.855 631.711ZM353.306 633.88C353.086 634.48 352.876 635.054 352.663 635.637C353.685 635.611 354.671 635.453 355.674 635.339C354.881 634.85 354.108 634.374 353.306 633.88ZM365.273 627.091C365.722 627.357 366.135 627.592 366.528 627.838C366.882 628.06 367.213 628.294 367.558 628.521C367.586 628.54 367.634 628.548 367.694 628.569C367.914 627.965 368.126 627.383 368.343 626.785C367.297 626.889 366.314 626.987 365.273 627.091Z" fill="white"/>
<path d="M383.966 629.269C382.094 629.895 380.249 630.513 378.404 631.13C382.357 628.476 384.79 625.632 385.036 622.491C385.06 622.519 385.088 622.547 385.108 622.577C385.525 623.223 385.989 623.856 386.348 624.52C386.863 625.471 387.108 626.49 387.166 627.549C387.262 629.297 386.764 631.079 385.721 632.891C384.788 634.511 383.449 636.067 381.773 637.566C378.17 640.791 373.422 643.26 367.775 645.117C364.826 646.087 361.786 646.673 358.704 646.977C356.023 647.242 353.403 647.331 350.883 647.158C345.767 646.808 341.657 645.589 338.632 643.445C336.849 642.182 335.595 640.709 334.818 639.051C334.146 637.621 333.976 636.094 334.203 634.492C334.415 633 334.888 631.501 335.76 629.989C336.593 628.545 337.75 627.153 339.264 625.818C341.876 623.515 345.226 621.631 349.044 620.014C349.398 619.863 349.756 619.716 350.118 619.573C350.55 619.403 350.8 619.191 350.867 618.911C351.076 618.031 352.439 617.222 354.013 617.036C355.605 616.849 356.826 617.386 356.902 618.26C357.014 619.544 354.703 620.677 352.911 620.571C352.764 620.563 352.618 620.548 352.486 620.521C352.069 620.437 351.649 620.494 351.205 620.668C349.848 621.2 348.535 621.772 347.278 622.398C343.686 624.186 340.918 626.284 338.992 628.695C337.544 630.508 336.781 632.326 336.614 634.144C336.498 635.405 336.613 636.625 337.018 637.791C337.726 639.831 339.251 641.548 341.577 642.947C343.699 644.223 346.243 645.163 349.375 645.632C352.097 646.04 355.005 646.05 358.058 645.747C360.128 645.541 362.19 645.202 364.241 644.722C367.522 643.955 370.566 642.858 373.37 641.443C375.634 640.3 377.674 639.039 379.403 637.622C381.864 635.606 383.336 633.484 383.82 631.27C383.951 630.676 383.955 630.091 384.011 629.502C384.018 629.427 383.984 629.356 383.966 629.269ZM354.034 619.626C354.905 619.439 355.486 618.943 355.387 618.47C355.275 617.937 354.585 617.731 353.612 617.941C352.82 618.111 352.193 618.67 352.285 619.125C352.377 619.577 353.183 619.808 354.034 619.626Z" fill="white"/>
<path d="M357.189 631.932C356.942 630.935 358.265 629.801 360.111 629.408C361.939 629.019 363.585 629.522 363.812 630.512C364.039 631.5 362.666 632.669 360.895 633.047C359.113 633.427 357.355 632.935 357.189 631.932Z" fill="white"/>
</g>
<defs>
<filter id="filter0_d_5311_105998" x="250.338" y="602.648" width="220.788" height="182.081" filterUnits="userSpaceOnUse" color-interpolation-filters="sRGB">
<feFlood flood-opacity="0" result="BackgroundImageFix"/>
<feColorMatrix in="SourceAlpha" type="matrix" values="0 0 0 0 0 0 0 0 0 0 0 0 0 0 0 0 0 0 127 0" result="hardAlpha"/>
<feOffset dy="44"/>
<feGaussianBlur stdDeviation="32"/>
<feColorMatrix type="matrix" values="0 0 0 0 0.380392 0 0 0 0 0.854902 0 0 0 0 0.984314 0 0 0 0.5 0"/>
<feBlend mode="normal" in2="BackgroundImageFix" result="effect1_dropShadow_5311_105998"/>
<feBlend mode="normal" in="SourceGraphic" in2="effect1_dropShadow_5311_105998" result="shape"/>
</filter>
<linearGradient id="paint0_linear_5311_105998" x1="514.484" y1="589.252" x2="322.394" y2="662.579" gradientUnits="userSpaceOnUse">
<stop stop-color="#58C2DE"/>
<stop offset="1" stop-color="#E3F2FD"/>
</linearGradient>
<linearGradient id="paint1_linear_5311_105998" x1="-30.5207" y1="-82.7272" x2="94.4506" y2="-24.628" gradientUnits="userSpaceOnUse">
<stop stop-color="#E3F2FD"/>
<stop offset="1" stop-color="white" stop-opacity="0"/>
</linearGradient>
<clipPath id="clip0_5311_105998">
<rect width="707" height="1188" fill="white"/>
</clipPath>
</defs>
</svg>
