<svg width="707" height="1188" viewBox="0 0 707 1188" fill="none" xmlns="http://www.w3.org/2000/svg">
<g clip-path="url(#clip0_5311_105998)">
<g filter="url(#filter0_d_5311_105998)">
<path d="M99.4341 898.586L89.6953 892.719V906.198L89.7039 906.193C89.7705 907.108 90.3839 908.011 91.544 908.71L134.996 934.888C137.458 936.371 141.449 936.371 143.91 934.888L253.842 868.66C255.097 867.904 255.712 866.909 255.687 865.919L255.695 865.923V852.445L245.768 858.426L210.39 837.112C207.928 835.629 203.937 835.629 201.476 837.112L99.4341 898.586Z" fill="url(#paint0_linear_5311_105998)"/>
</g>
<rect width="143.143" height="63.0724" rx="12" transform="matrix(0.866041 -0.499972 0.866041 0.499972 83 892.567)" fill="#FFAB91"/>
<mask id="mask0_5311_105998" style="mask-type:alpha" maskUnits="userSpaceOnUse" x="93" y="824" width="163" height="94">
<rect width="137.775" height="63.0724" rx="12" transform="matrix(0.866041 -0.499972 0.866041 0.499972 87.6489 889.884)" fill="#FFAB91"/>
</mask>
<g mask="url(#mask0_5311_105998)">
<path d="M145.765 908.22L136.761 922.681L263.778 849.353L259.435 846.846L240.805 844.447C229.466 842.987 218.203 847.065 215.543 853.594C213.301 859.1 204.82 863.002 195.024 863.035L192.48 863.044C177.303 863.096 165.878 871.037 168.573 879.659L169.56 882.816C171.591 889.313 166.845 895.894 157.428 899.64L156.967 899.823C151.804 901.877 147.886 904.814 145.765 908.22Z" fill="url(#paint1_linear_5311_105998)"/>
<path d="M145.778 908.199L136.761 922.681L263.21 848.469L243.631 844.861C231.581 842.64 218.758 846.676 215.464 853.726C212.733 859.571 203.288 863.514 192.818 863.179L192.23 863.16C177.74 862.697 166.164 870.029 168.302 878.316L169.558 883.187C171.233 889.677 166.338 896.149 156.956 899.852C151.802 901.886 147.89 904.807 145.778 908.199Z" stroke="url(#paint2_linear_5311_105998)"/>
</g>
<path d="M183.547 849.406C183.369 849.303 183.185 849.247 182.996 849.24C182.806 849.232 182.556 849.266 182.245 849.341C181.934 849.417 181.638 849.482 181.358 849.537C181.079 849.591 180.81 849.622 180.553 849.63C180.296 849.638 180.052 849.617 179.819 849.566C179.587 849.515 179.357 849.424 179.129 849.292C178.748 849.072 178.563 848.817 178.574 848.527C178.583 848.235 178.782 847.954 179.17 847.683L178.456 847.271L178.994 846.961L179.721 847.38C180.195 847.177 180.689 847.089 181.203 847.115C181.717 847.138 182.188 847.274 182.617 847.521L181.473 848.181C181.239 848.046 181.013 847.968 180.797 847.947C180.58 847.926 180.389 847.964 180.222 848.06C180.073 848.146 180.004 848.24 180.015 848.343C180.027 848.444 180.115 848.541 180.279 848.636C180.446 848.733 180.627 848.782 180.821 848.785C181.012 848.786 181.258 848.752 181.558 848.683C181.856 848.613 182.146 848.552 182.427 848.501C182.709 848.448 182.979 848.417 183.236 848.41C183.493 848.402 183.741 848.423 183.98 848.472C184.219 848.522 184.453 848.612 184.681 848.744C185.066 848.966 185.258 849.219 185.256 849.501C185.256 849.783 185.065 850.057 184.684 850.324L185.364 850.716L184.826 851.027L184.143 850.632C183.599 850.886 183.053 851.007 182.505 850.995C181.957 850.981 181.45 850.839 180.983 850.57L182.123 849.912C182.38 850.06 182.633 850.141 182.881 850.154C183.129 850.164 183.358 850.109 183.568 849.988C183.721 849.899 183.796 849.803 183.794 849.701C183.79 849.596 183.707 849.498 183.547 849.406ZM189.122 847.695L187.979 848.355L184.339 846.254L183.544 847.091L182.678 846.591L184.092 844.912L184.197 844.851L189.122 847.695ZM190.32 842.836C190.559 842.974 190.71 843.13 190.773 843.304C190.839 843.478 190.823 843.656 190.726 843.84C191.075 843.771 191.419 843.754 191.758 843.791C192.094 843.826 192.398 843.922 192.671 844.08C193.111 844.334 193.306 844.622 193.256 844.945C193.209 845.267 192.919 845.581 192.387 845.888C191.852 846.197 191.303 846.367 190.739 846.398C190.173 846.428 189.672 846.317 189.234 846.064C188.97 845.912 188.804 845.738 188.737 845.543C188.669 845.347 188.701 845.144 188.831 844.933C188.511 844.991 188.2 845.001 187.898 844.965C187.596 844.928 187.325 844.841 187.086 844.703C186.657 844.455 186.464 844.176 186.507 843.865C186.55 843.554 186.819 843.256 187.312 842.97C187.811 842.683 188.33 842.527 188.869 842.502C189.408 842.477 189.891 842.588 190.32 842.836ZM191.436 844.687C191.233 844.57 191.025 844.511 190.81 844.509C190.596 844.506 190.403 844.553 190.232 844.652C190.061 844.751 189.977 844.863 189.982 844.988C189.984 845.112 190.087 845.232 190.29 845.349C190.486 845.463 190.694 845.522 190.915 845.527C191.136 845.53 191.334 845.481 191.507 845.381C191.677 845.283 191.757 845.172 191.748 845.047C191.739 844.922 191.635 844.802 191.436 844.687ZM188.192 843.478C188.039 843.567 187.972 843.664 187.992 843.769C188.013 843.872 188.112 843.975 188.29 844.078C188.466 844.179 188.649 844.238 188.838 844.254C189.028 844.269 189.201 844.231 189.359 844.14C189.515 844.051 189.577 843.952 189.545 843.845C189.516 843.737 189.413 843.633 189.237 843.531C189.061 843.429 188.882 843.373 188.7 843.361C188.519 843.348 188.35 843.387 188.192 843.478ZM192.722 842.222L193.26 841.912C193.686 841.666 193.691 841.422 193.273 841.182C193.111 841.088 192.928 841.041 192.725 841.041C192.52 841.04 192.325 841.092 192.14 841.199C191.989 841.286 191.901 841.388 191.876 841.504C191.854 841.618 191.908 841.713 192.039 841.789L190.898 842.447C190.639 842.297 190.48 842.122 190.421 841.922C190.363 841.721 190.405 841.515 190.547 841.303C190.689 841.088 190.913 840.892 191.22 840.715C191.768 840.398 192.324 840.222 192.888 840.185C193.451 840.149 193.952 840.257 194.39 840.51C194.602 840.632 194.737 840.786 194.796 840.971C194.854 841.153 194.818 841.349 194.687 841.56C195.044 841.464 195.393 841.429 195.736 841.455C196.077 841.48 196.389 841.574 196.673 841.738C197.113 841.992 197.296 842.293 197.221 842.64C197.147 842.988 196.834 843.321 196.284 843.638C195.962 843.825 195.601 843.963 195.202 844.052C194.802 844.14 194.424 844.162 194.065 844.119C193.704 844.075 193.385 843.972 193.108 843.812L194.254 843.15C194.405 843.237 194.597 843.278 194.829 843.271C195.062 843.265 195.267 843.21 195.445 843.107C195.646 842.991 195.751 842.867 195.76 842.734C195.767 842.6 195.683 842.483 195.509 842.383C195.261 842.239 195.023 842.174 194.796 842.185C194.568 842.197 194.345 842.266 194.126 842.392L193.571 842.713L192.722 842.222ZM198.974 839.809C198.949 840.078 198.784 840.301 198.48 840.476C198.033 840.734 197.528 840.851 196.964 840.828C196.4 840.805 195.866 840.647 195.361 840.355C195.045 840.173 194.825 839.962 194.701 839.721C194.577 839.48 194.568 839.238 194.674 838.994C194.782 838.749 194.996 838.535 195.317 838.35C195.641 838.162 196.017 838.04 196.443 837.984C196.869 837.926 197.306 837.941 197.752 838.029C198.197 838.117 198.616 838.272 199.011 838.494L199.447 838.746C199.991 839.06 200.355 839.394 200.54 839.748C200.727 840.101 200.731 840.453 200.55 840.805C200.37 841.156 200.017 841.484 199.491 841.787L199.42 841.828L198.507 841.301L198.72 841.174C199.466 840.698 199.551 840.243 198.974 839.809ZM197.965 839.824C198.214 839.681 198.285 839.516 198.179 839.33L197.705 839.057C197.389 838.874 197.103 838.77 196.846 838.744C196.589 838.718 196.37 838.757 196.189 838.861C196.029 838.954 195.981 839.081 196.044 839.242C196.107 839.404 196.26 839.555 196.504 839.695C196.761 839.844 197.022 839.93 197.286 839.955C197.547 839.978 197.774 839.935 197.965 839.824ZM202.262 838.832C202.442 838.728 202.646 838.673 202.874 838.666C203.1 838.658 203.296 838.703 203.463 838.799C203.63 838.895 203.708 839.009 203.696 839.141C203.683 839.271 203.586 839.388 203.405 839.492C203.223 839.598 203.017 839.654 202.79 839.66C202.564 839.665 202.369 839.62 202.204 839.525C202.04 839.43 201.962 839.318 201.971 839.188C201.982 839.056 202.079 838.938 202.262 838.832ZM206.149 835.541C206.814 835.925 207.177 836.308 207.238 836.69C207.301 837.07 207.061 837.417 206.518 837.731C205.97 838.047 205.364 838.187 204.701 838.15C204.038 838.114 203.376 837.905 202.715 837.524L201.815 837.004C201.15 836.62 200.786 836.238 200.723 835.858C200.662 835.476 200.904 835.128 201.45 834.813C201.996 834.498 202.6 834.358 203.263 834.395C203.926 834.431 204.589 834.641 205.252 835.024L206.149 835.541ZM203.963 835.596C203.609 835.391 203.299 835.266 203.033 835.219C202.765 835.171 202.53 835.205 202.33 835.321C202.133 835.434 202.071 835.563 202.143 835.709C202.218 835.854 202.416 836.023 202.739 836.217L203.997 836.943C204.365 837.156 204.681 837.285 204.945 837.33C205.206 837.374 205.437 837.339 205.638 837.223C205.832 837.111 205.893 836.981 205.821 836.832C205.746 836.682 205.533 836.505 205.181 836.299L203.963 835.596ZM210.161 833.225C210.826 833.609 211.19 833.992 211.25 834.373C211.314 834.754 211.073 835.1 210.53 835.414C209.982 835.731 209.376 835.871 208.713 835.834C208.05 835.798 207.388 835.589 206.727 835.207L205.828 834.688C205.162 834.304 204.798 833.922 204.735 833.541C204.674 833.16 204.916 832.812 205.462 832.496C206.008 832.181 206.612 832.042 207.275 832.079C207.938 832.115 208.602 832.325 209.265 832.707L210.161 833.225ZM207.976 833.28C207.622 833.075 207.312 832.95 207.045 832.903C206.777 832.855 206.542 832.888 206.342 833.004C206.146 833.118 206.083 833.247 206.156 833.393C206.23 833.537 206.429 833.707 206.751 833.901L208.01 834.627C208.377 834.839 208.693 834.968 208.957 835.014C209.218 835.058 209.45 835.022 209.65 834.906C209.844 834.795 209.905 834.664 209.833 834.516C209.759 834.366 209.545 834.188 209.194 833.983L207.976 833.28Z" fill="white"/>
<path d="M117.941 903.735L117.311 904.098L113.14 901.69L112.342 902.686L111.774 902.358L112.893 900.934L112.991 900.877L117.941 903.735ZM120.762 899.68C121.495 900.103 121.915 900.49 122.021 900.84C122.127 901.19 121.913 901.519 121.381 901.827C120.856 902.13 120.293 902.254 119.693 902.2C119.091 902.144 118.439 901.918 117.738 901.524L116.902 901.041C116.178 900.623 115.765 900.241 115.664 899.893C115.562 899.545 115.779 899.217 116.314 898.909C116.844 898.603 117.404 898.476 117.995 898.528C118.583 898.579 119.235 898.806 119.95 899.211L120.762 899.68ZM119.28 899.547C118.75 899.241 118.29 899.062 117.9 899.008C117.508 898.954 117.15 899.019 116.828 899.206C116.507 899.39 116.395 899.595 116.489 899.819C116.584 900.043 116.88 900.301 117.376 900.592L118.377 901.17C118.909 901.478 119.38 901.661 119.788 901.719C120.196 901.775 120.557 901.713 120.87 901.532C121.179 901.353 121.289 901.152 121.199 900.928C121.111 900.703 120.813 900.44 120.305 900.139L119.28 899.547ZM119.632 898.165C119.337 897.994 119.187 897.799 119.182 897.581C119.18 897.361 119.327 897.165 119.622 896.995C119.922 896.822 120.261 896.738 120.64 896.743C121.019 896.745 121.362 896.835 121.669 897.012L121.909 897.151C122.207 897.323 122.355 897.518 122.355 897.737C122.355 897.953 122.21 898.145 121.919 898.313C121.626 898.482 121.29 898.568 120.911 898.571C120.53 898.572 120.182 898.482 119.869 898.301L119.632 898.165ZM120.36 898.045C120.535 898.147 120.731 898.202 120.945 898.211C121.157 898.219 121.346 898.175 121.513 898.079C121.673 897.986 121.747 897.88 121.733 897.76C121.722 897.639 121.62 897.523 121.429 897.413L121.182 897.27C121.006 897.169 120.812 897.113 120.6 897.102C120.388 897.092 120.198 897.135 120.031 897.231C119.865 897.327 119.79 897.437 119.808 897.559C119.826 897.682 119.928 897.796 120.113 897.903L120.36 898.045ZM124.801 898.379C124.506 898.209 124.357 898.015 124.355 897.797C124.353 897.577 124.499 897.382 124.795 897.212C125.09 897.041 125.427 896.956 125.806 896.956C126.185 896.956 126.531 897.046 126.845 897.227L127.085 897.366C127.38 897.536 127.529 897.732 127.531 897.952C127.534 898.169 127.388 898.363 127.095 898.532C126.802 898.701 126.466 898.787 126.087 898.79C125.706 898.791 125.358 898.701 125.045 898.52L124.801 898.379ZM125.532 898.262C125.71 898.365 125.906 898.421 126.121 898.43C126.333 898.438 126.522 898.394 126.689 898.297C126.851 898.204 126.926 898.097 126.912 897.977C126.897 897.856 126.793 897.74 126.601 897.629L126.351 897.485C126.173 897.382 125.978 897.327 125.766 897.319C125.556 897.31 125.369 897.353 125.204 897.448C125.044 897.54 124.969 897.648 124.981 897.772C124.992 897.893 125.092 898.008 125.282 898.118L125.532 898.262ZM124.395 899.579L123.817 899.655L122.372 896.044L122.951 895.967L124.395 899.579ZM129.341 894.927L131.27 896.04L130.62 896.415L125.694 893.571L127.511 892.522C128.05 892.211 128.609 892.047 129.189 892.03C129.771 892.012 130.289 892.134 130.742 892.395C131.22 892.671 131.439 892.971 131.398 893.294C131.358 893.614 131.059 893.935 130.502 894.257L129.341 894.927ZM128.81 894.62L129.977 893.946C130.325 893.746 130.51 893.545 130.532 893.345C130.552 893.143 130.408 892.953 130.099 892.774C129.806 892.605 129.479 892.523 129.118 892.528C128.757 892.533 128.412 892.627 128.083 892.809L126.879 893.505L128.81 894.62ZM133.563 891.138C133.453 891.183 133.342 891.238 133.232 891.302C132.821 891.539 132.718 891.8 132.921 892.087L135.519 893.587L134.893 893.948L131.232 891.835L131.841 891.483L132.274 891.722C132.153 891.414 132.28 891.152 132.657 890.935C132.778 890.864 132.887 890.82 132.981 890.802L133.563 891.138ZM135.143 891.651C134.785 891.444 134.532 891.218 134.385 890.972C134.241 890.724 134.216 890.483 134.311 890.249C134.408 890.013 134.618 889.802 134.94 889.616C135.439 889.329 136.014 889.196 136.665 889.218C137.32 889.239 137.933 889.414 138.506 889.745L138.55 889.771C138.906 889.976 139.158 890.201 139.304 890.444C139.451 890.685 139.476 890.925 139.379 891.163C139.284 891.4 139.072 891.614 138.743 891.804C138.246 892.09 137.671 892.223 137.017 892.202C136.366 892.18 135.755 892.005 135.187 891.677L135.143 891.651ZM135.847 891.331C136.253 891.565 136.672 891.699 137.105 891.733C137.541 891.766 137.916 891.691 138.232 891.509C138.55 891.325 138.678 891.108 138.617 890.856C138.554 890.604 138.298 890.348 137.85 890.089C137.448 889.857 137.027 889.725 136.588 889.692C136.148 889.657 135.77 889.731 135.454 889.913C135.145 890.091 135.019 890.306 135.075 890.558C135.132 890.809 135.389 891.067 135.847 891.331ZM141.334 890.229L138.157 888.396L137.579 888.73L137.095 888.45L137.674 888.116L137.362 887.937C136.954 887.701 136.752 887.45 136.757 887.185C136.764 886.918 136.98 886.661 137.406 886.415C137.659 886.269 138.047 886.125 138.57 885.982L138.993 886.347C138.598 886.445 138.274 886.567 138.019 886.714C137.75 886.869 137.617 887.016 137.619 887.155C137.622 887.292 137.744 887.43 137.985 887.569L138.303 887.753L139.05 887.321L139.534 887.601L138.787 888.032L141.963 889.866L141.334 890.229ZM143.942 888.724L143.313 889.087L139.653 886.974L140.282 886.611L143.942 888.724ZM141.263 885.021L142.149 885.532L142.833 885.138L143.316 885.417L142.633 885.812L144.903 887.122C145.05 887.207 145.191 887.253 145.326 887.261C145.459 887.267 145.599 887.228 145.745 887.144C145.818 887.102 145.903 887.037 146.002 886.948L146.51 887.241C146.39 887.362 146.253 887.468 146.097 887.558C145.818 887.719 145.522 887.792 145.211 887.777C144.9 887.761 144.588 887.663 144.277 887.484L142.007 886.173L141.341 886.558L140.857 886.279L141.523 885.894L140.637 885.382L141.263 885.021Z" fill="#FBE9E7"/>
<path d="M107.156 898.778L102.231 895.934L103.919 894.96C104.476 894.638 105.011 894.458 105.526 894.419C106.04 894.38 106.518 894.488 106.96 894.743C107.186 894.873 107.328 895.026 107.386 895.2C107.445 895.375 107.407 895.558 107.271 895.751C107.61 895.639 107.951 895.599 108.296 895.632C108.641 895.662 108.954 895.757 109.233 895.919C109.696 896.186 109.902 896.477 109.852 896.792C109.805 897.106 109.505 897.422 108.953 897.741L107.156 898.778ZM105.789 897.001L107.329 897.889L108.279 897.341C108.548 897.186 108.691 897.026 108.709 896.862C108.727 896.698 108.618 896.548 108.381 896.411C107.869 896.115 107.346 896.115 106.811 896.411L105.789 897.001ZM105.16 896.637L105.999 896.153C106.265 895.999 106.413 895.845 106.442 895.69C106.472 895.533 106.376 895.39 106.155 895.263C105.911 895.122 105.665 895.061 105.417 895.079C105.172 895.096 104.902 895.189 104.609 895.358L103.777 895.839L105.16 896.637ZM113.635 895.038C113.529 895.018 113.383 894.971 113.198 894.895C113.209 895.204 113.026 895.468 112.647 895.686C112.279 895.899 111.874 896.011 111.432 896.024C110.99 896.037 110.615 895.955 110.306 895.776C109.916 895.551 109.761 895.295 109.842 895.009C109.923 894.72 110.234 894.419 110.773 894.108L111.277 893.817L111.036 893.679C110.847 893.569 110.643 893.513 110.424 893.509C110.203 893.504 109.984 893.563 109.768 893.688C109.581 893.796 109.475 893.912 109.45 894.036C109.423 894.158 109.481 894.261 109.626 894.345L108.804 894.819C108.603 894.703 108.482 894.557 108.442 894.38C108.399 894.201 108.442 894.018 108.57 893.829C108.701 893.639 108.907 893.463 109.189 893.3C109.618 893.052 110.068 892.918 110.539 892.895C111.008 892.872 111.441 892.971 111.838 893.192L113.489 894.145C113.818 894.336 114.127 894.461 114.416 894.52L114.474 894.554L113.635 895.038ZM112.139 895.218C112.302 895.124 112.414 895.013 112.478 894.886C112.543 894.757 112.545 894.633 112.484 894.515L111.794 894.116L111.351 894.372C111.047 894.548 110.871 894.71 110.823 894.86C110.776 895.01 110.849 895.141 111.043 895.253C111.201 895.344 111.379 895.387 111.578 895.382C111.776 895.374 111.963 895.319 112.139 895.218ZM112.393 891.528L116.378 893.829C116.753 894.045 116.944 894.264 116.953 894.485C116.967 894.707 116.794 894.921 116.436 895.128C116.285 895.215 116.12 895.288 115.942 895.347L115.292 894.972C115.398 894.934 115.505 894.884 115.614 894.821C115.887 894.664 115.877 894.497 115.587 894.321L111.571 892.003L112.393 891.528ZM110.549 891.495C110.423 891.422 110.358 891.339 110.353 891.245C110.351 891.15 110.424 891.06 110.573 890.974C110.722 890.888 110.879 890.845 111.043 890.847C111.208 890.848 111.353 890.885 111.48 890.958C111.604 891.03 111.667 891.113 111.669 891.208C111.669 891.302 111.595 891.392 111.446 891.478C111.297 891.564 111.141 891.606 110.979 891.606C110.817 891.604 110.673 891.567 110.549 891.495ZM119.122 891.87C119.016 891.851 118.87 891.803 118.685 891.728C118.697 892.036 118.513 892.3 118.134 892.519C117.766 892.731 117.361 892.843 116.919 892.856C116.477 892.869 116.102 892.787 115.793 892.608C115.403 892.383 115.248 892.127 115.329 891.841C115.411 891.552 115.721 891.252 116.26 890.941L116.764 890.65L116.524 890.511C116.334 890.401 116.13 890.345 115.911 890.341C115.69 890.336 115.472 890.396 115.255 890.521C115.068 890.629 114.962 890.745 114.937 890.868C114.91 890.991 114.969 891.094 115.113 891.177L114.291 891.651C114.09 891.536 113.97 891.389 113.929 891.212C113.886 891.034 113.929 890.85 114.057 890.661C114.188 890.471 114.395 890.295 114.677 890.132C115.105 889.885 115.555 889.75 116.026 889.728C116.495 889.704 116.928 889.803 117.325 890.025L118.976 890.978C119.306 891.168 119.615 891.293 119.903 891.353L119.961 891.386L119.122 891.87ZM117.626 892.05C117.789 891.956 117.902 891.845 117.965 891.718C118.03 891.589 118.032 891.465 117.972 891.347L117.281 890.948L116.838 891.204C116.534 891.38 116.358 891.543 116.311 891.692C116.263 891.842 116.336 891.973 116.53 892.085C116.688 892.176 116.866 892.219 117.065 892.214C117.263 892.206 117.451 892.151 117.626 892.05ZM117.88 888.361L121.865 890.661C122.24 890.877 122.431 891.096 122.44 891.317C122.454 891.539 122.281 891.753 121.923 891.96C121.772 892.047 121.607 892.12 121.429 892.179L120.779 891.804C120.885 891.766 120.993 891.716 121.101 891.653C121.374 891.496 121.365 891.329 121.074 891.153L117.058 888.835L117.88 888.361ZM116.036 888.327C115.91 888.254 115.845 888.171 115.84 888.077C115.838 887.982 115.911 887.892 116.06 887.806C116.209 887.72 116.366 887.678 116.53 887.679C116.695 887.68 116.841 887.717 116.967 887.79C117.091 887.862 117.154 887.945 117.156 888.04C117.156 888.134 117.082 888.224 116.933 888.31C116.784 888.396 116.629 888.439 116.466 888.439C116.304 888.436 116.161 888.399 116.036 888.327ZM124.978 886.079L122.995 887.224L125.083 888.429L124.227 888.923L119.301 886.079L122.43 884.273L123.12 884.671L120.847 885.984L122.312 886.829L124.294 885.685L124.978 886.079ZM128.831 886.265L128.009 886.74L124.348 884.626L125.171 884.152L128.831 886.265ZM123.347 884.107C123.221 884.034 123.155 883.951 123.151 883.857C123.149 883.762 123.222 883.671 123.371 883.585C123.52 883.5 123.676 883.457 123.841 883.459C124.006 883.46 124.151 883.497 124.277 883.57C124.401 883.641 124.465 883.725 124.467 883.82C124.467 883.914 124.392 884.003 124.244 884.089C124.095 884.175 123.939 884.218 123.777 884.218C123.614 884.216 123.471 884.179 123.347 884.107ZM126.832 883.193L127.278 883.423C127.222 883.078 127.413 882.779 127.853 882.525C128.616 882.085 129.44 882.113 130.326 882.609L132.745 884.005L131.923 884.48L129.551 883.111C129.319 882.977 129.097 882.907 128.885 882.902C128.673 882.894 128.453 882.956 128.225 883.087C127.894 883.279 127.797 883.508 127.934 883.775L130.539 885.279L129.717 885.753L126.057 883.64L126.832 883.193ZM134.643 881.761C134.496 881.677 134.324 881.647 134.125 881.673C133.929 881.698 133.662 881.774 133.323 881.902C132.985 882.03 132.677 882.121 132.4 882.177C131.791 882.3 131.298 882.252 130.922 882.035C130.606 881.852 130.475 881.623 130.529 881.347C130.583 881.071 130.816 880.815 131.226 880.578C131.664 880.325 132.125 880.184 132.61 880.154C133.097 880.123 133.513 880.207 133.858 880.406L133.036 880.881C132.878 880.789 132.689 880.748 132.468 880.756C132.244 880.762 132.036 880.821 131.842 880.933C131.661 881.037 131.555 881.147 131.524 881.261C131.494 881.375 131.55 881.472 131.69 881.552C131.816 881.625 131.967 881.651 132.143 881.63C132.319 881.61 132.604 881.527 132.999 881.382C133.391 881.237 133.728 881.14 134.01 881.091C134.292 881.041 134.546 881.03 134.771 881.058C134.999 881.086 135.211 881.156 135.407 881.269C135.737 881.459 135.867 881.692 135.8 881.968C135.73 882.243 135.474 882.508 135.032 882.763C134.732 882.936 134.411 883.059 134.068 883.132C133.725 883.205 133.393 883.225 133.073 883.191C132.753 883.157 132.483 883.077 132.265 882.951L133.063 882.49C133.268 882.595 133.492 882.64 133.733 882.623C133.972 882.604 134.203 882.531 134.426 882.402C134.643 882.277 134.767 882.158 134.798 882.046C134.828 881.933 134.776 881.838 134.643 881.761ZM138.845 880.562C138.324 880.863 137.737 881.013 137.085 881.011C136.434 881.007 135.835 880.848 135.289 880.533L135.188 880.474C134.822 880.263 134.566 880.035 134.42 879.789C134.273 879.54 134.247 879.296 134.342 879.056C134.436 878.817 134.641 878.607 134.954 878.426C135.453 878.138 135.996 878.008 136.585 878.035C137.176 878.061 137.762 878.242 138.344 878.578L138.675 878.769L136.284 880.15C136.611 880.31 136.95 880.39 137.302 880.39C137.656 880.389 137.967 880.311 138.236 880.156C138.612 879.939 138.767 879.674 138.699 879.361L139.565 879.349C139.637 879.56 139.611 879.772 139.487 879.984C139.363 880.194 139.149 880.386 138.845 880.562ZM135.61 878.808C135.385 878.939 135.281 879.09 135.299 879.261C135.319 879.432 135.451 879.61 135.695 879.795L137.261 878.89L137.2 878.855C136.907 878.707 136.626 878.629 136.358 878.623C136.087 878.615 135.838 878.677 135.61 878.808ZM139.893 876.519C139.767 876.572 139.646 876.631 139.531 876.697C139.155 876.915 139.045 877.144 139.203 877.387L141.707 878.832L140.884 879.306L137.224 877.193L138.009 876.74L138.439 876.965C138.319 876.667 138.435 876.416 138.787 876.213C138.904 876.145 139.017 876.098 139.125 876.072L139.893 876.519ZM143.631 876.517L141.788 874.559L142.637 874.068L145.029 876.914L144.315 877.326L139.376 875.951L140.228 875.459L143.631 876.517Z" fill="white"/>
</g>
<defs>
<filter id="filter0_d_5311_105998" x="35.6953" y="836" width="274" height="208" filterUnits="userSpaceOnUse" color-interpolation-filters="sRGB">
<feFlood flood-opacity="0" result="BackgroundImageFix"/>
<feColorMatrix in="SourceAlpha" type="matrix" values="0 0 0 0 0 0 0 0 0 0 0 0 0 0 0 0 0 0 127 0" result="hardAlpha"/>
<feOffset dy="54"/>
<feGaussianBlur stdDeviation="27"/>
<feColorMatrix type="matrix" values="0 0 0 0 0.952941 0 0 0 0 0.54902 0 0 0 0 0.423529 0 0 0 0.2 0"/>
<feBlend mode="normal" in2="BackgroundImageFix" result="effect1_dropShadow_5311_105998"/>
<feBlend mode="normal" in="SourceGraphic" in2="effect1_dropShadow_5311_105998" result="shape"/>
</filter>
<linearGradient id="paint0_linear_5311_105998" x1="253.703" y1="863.895" x2="90.4485" y2="901.63" gradientUnits="userSpaceOnUse">
<stop stop-color="#F0C9C5"/>
<stop offset="1" stop-color="#FBE9E7"/>
</linearGradient>
<linearGradient id="paint1_linear_5311_105998" x1="132.019" y1="846.615" x2="166.259" y2="905.72" gradientUnits="userSpaceOnUse">
<stop stop-color="#D84315"/>
<stop offset="1" stop-color="#FFAB91"/>
</linearGradient>
<linearGradient id="paint2_linear_5311_105998" x1="172.021" y1="869.709" x2="186.299" y2="894.172" gradientUnits="userSpaceOnUse">
<stop stop-color="#D84315"/>
<stop offset="1" stop-color="#FFAB91"/>
</linearGradient>
<clipPath id="clip0_5311_105998">
<rect width="707" height="1188" fill="white"/>
</clipPath>
</defs>
</svg>
