<svg width="707" height="1188" viewBox="0 0 707 1188" fill="none" xmlns="http://www.w3.org/2000/svg">
<g clip-path="url(#clip0_5311_105998)">
<g clip-path="url(#clip1_5311_105998)">
<g filter="url(#filter0_d_5311_105998)">
<path d="M346.324 807.976V802.975H339.929V813.584L339.944 813.592C339.976 814.709 340.73 815.82 342.204 816.673L408.166 854.816C411.182 856.559 416.07 856.559 419.085 854.816L581.037 761.167C582.474 760.336 583.226 759.259 583.293 758.17L583.294 758.169V758.148C583.299 758.058 583.299 757.968 583.294 757.878L583.305 747.206L574.185 750.891L515.074 716.71C512.059 714.967 507.17 714.967 504.155 716.71L346.324 807.976Z" fill="url(#paint0_linear_5311_105998)"/>
</g>
<path d="M504.154 706.188L342.203 799.836C339.187 801.579 339.187 804.406 342.203 806.15L408.165 844.293C411.18 846.036 416.069 846.036 419.084 844.293L581.035 750.644C584.051 748.901 584.05 746.074 581.035 744.33L515.073 706.188C512.057 704.444 507.169 704.444 504.154 706.188Z" fill="#673AB7"/>
<path d="M504.154 706.188L342.203 799.836C339.187 801.579 339.187 804.406 342.203 806.15L408.165 844.293C411.18 846.036 416.069 846.036 419.084 844.293L581.035 750.644C584.051 748.901 584.05 746.074 581.035 744.33L515.073 706.188C512.057 704.444 507.169 704.444 504.154 706.188Z" fill="url(#paint1_linear_5311_105998)" fill-opacity="0.3"/>
<mask id="mask0_5311_105998" style="mask-type:alpha" maskUnits="userSpaceOnUse" x="339" y="704" width="245" height="142">
<path d="M504.154 706.187L342.203 799.835C339.187 801.579 339.187 804.406 342.203 806.149L408.165 844.292C411.18 846.036 416.069 846.036 419.084 844.292L581.035 750.644C584.05 748.9 584.05 746.073 581.035 744.33L515.073 706.187C512.057 704.443 507.169 704.443 504.154 706.187Z" fill="#673AB7"/>
</mask>
<g mask="url(#mask0_5311_105998)">
</g>
<mask id="mask1_5311_105998" style="mask-type:alpha" maskUnits="userSpaceOnUse" x="339" y="704" width="245" height="142">
<path d="M504.154 706.187L342.203 799.835C339.187 801.579 339.187 804.406 342.203 806.149L408.165 844.292C411.18 846.036 416.069 846.036 419.084 844.292L581.035 750.644C584.05 748.9 584.05 746.073 581.035 744.33L515.073 706.187C512.057 704.443 507.169 704.443 504.154 706.187Z" fill="#673AB7"/>
</mask>
<g mask="url(#mask1_5311_105998)">
<path d="M471.85 682.251L466.855 685.14C441.728 699.67 441.728 723.227 466.855 737.757L471.85 740.645C496.977 755.175 537.716 755.175 562.843 740.645L567.839 737.757C592.966 723.227 592.966 699.67 567.839 685.14L562.843 682.251C537.716 667.722 496.977 667.722 471.85 682.251Z" fill="#5E35B1"/>
<path opacity="0.7" d="M416.578 692.379L411.582 695.268C386.581 709.725 386.581 733.164 411.582 747.621L416.578 750.51C441.579 764.967 482.114 764.967 507.116 750.51L512.111 747.621C537.113 733.164 537.113 709.725 512.111 695.268L507.116 692.379C482.114 677.922 441.579 677.922 416.578 692.379Z" stroke="#5E35B1"/>
<path opacity="0.1" d="M505.518 713.816L499.15 717.498C496.889 718.806 496.889 720.926 499.15 722.233L505.518 725.916C507.78 727.223 511.446 727.223 513.708 725.916L520.076 722.233C522.337 720.926 522.337 718.806 520.076 717.498L513.708 713.816C511.446 712.508 507.78 712.508 505.518 713.816Z" fill="#E3F2FD"/>
<path d="M508.703 720.392C508.201 720.101 507.386 720.101 506.884 720.392C506.381 720.682 506.381 721.154 506.884 721.444C507.386 721.735 508.201 721.735 508.703 721.444C509.206 721.154 509.206 720.682 508.703 720.392Z" fill="#B39DDB"/>
<path d="M512.343 718.287C511.841 717.997 511.026 717.997 510.523 718.287C510.021 718.578 510.021 719.049 510.523 719.34C511.026 719.63 511.841 719.63 512.343 719.34C512.846 719.049 512.846 718.578 512.343 718.287Z" fill="#B39DDB"/>
<path d="M452.748 784.841L452.748 784.841C449.985 786.439 449.985 789.03 452.748 790.628L452.748 790.628C455.512 792.226 459.993 792.226 462.757 790.628L462.757 790.628C465.52 789.03 465.52 786.439 462.757 784.841L462.757 784.841C459.993 783.243 455.512 783.243 452.748 784.841Z" fill="#B39DDB"/>
<path d="M457.754 785.98V789.488" stroke="#5E35B1" stroke-width="1.5" stroke-linecap="round" stroke-linejoin="round"/>
<path d="M455.023 787.559L457.754 785.98L460.483 787.559" stroke="#5E35B1" stroke-width="1.5" stroke-linecap="round" stroke-linejoin="round"/>
<path d="M412.901 833.48L410.244 835.016L412.234 836.167L415.34 834.371L416.238 834.89L412.008 837.336L405.539 833.595L409.738 831.167L410.644 831.691L407.569 833.469L409.356 834.502L412.012 832.966L412.901 833.48ZM419.921 832.76C419.782 832.735 419.591 832.672 419.348 832.573C419.363 832.979 419.121 833.326 418.624 833.613C418.141 833.892 417.609 834.041 417.029 834.058C416.448 834.075 415.955 833.966 415.549 833.731C415.037 833.435 414.834 833.098 414.941 832.722C415.047 832.342 415.454 831.947 416.162 831.537L416.824 831.155L416.509 830.972C416.26 830.828 415.992 830.754 415.704 830.748C415.414 830.742 415.127 830.821 414.843 830.985C414.597 831.127 414.458 831.28 414.425 831.443C414.389 831.604 414.467 831.739 414.656 831.848L413.576 832.473C413.312 832.32 413.154 832.128 413.101 831.895C413.045 831.66 413.101 831.418 413.27 831.17C413.442 830.92 413.713 830.688 414.083 830.474C414.646 830.149 415.237 829.971 415.856 829.942C416.472 829.911 417.04 830.041 417.562 830.332L419.73 831.586C420.162 831.836 420.568 832.001 420.947 832.08L421.023 832.123L419.921 832.76ZM417.957 832.997C418.17 832.873 418.318 832.728 418.401 832.56C418.488 832.39 418.49 832.228 418.41 832.072L417.504 831.548L416.922 831.885C416.522 832.116 416.291 832.33 416.229 832.526C416.167 832.723 416.263 832.896 416.518 833.043C416.725 833.163 416.959 833.219 417.219 833.213C417.481 833.202 417.726 833.131 417.957 832.997ZM420.667 827.91C420.502 827.978 420.343 828.056 420.192 828.144C419.697 828.43 419.553 828.732 419.761 829.05L423.049 830.952L421.969 831.576L417.162 828.796L418.193 828.2L418.757 828.495C418.6 828.103 418.752 827.773 419.215 827.507C419.369 827.417 419.517 827.356 419.659 827.321L420.667 827.91ZM421.365 826.366L421.952 826.669C421.878 826.215 422.129 825.821 422.707 825.487C423.708 824.908 424.791 824.945 425.955 825.598L429.131 827.434L428.052 828.059L424.937 826.258C424.632 826.081 424.34 825.99 424.062 825.983C423.784 825.973 423.495 826.054 423.196 826.227C422.76 826.479 422.633 826.78 422.813 827.131L426.235 829.109L425.155 829.734L420.347 826.954L421.365 826.366ZM431.384 826.132L430.305 826.756L425.497 823.976L426.577 823.352L431.384 826.132ZM424.182 823.293C424.016 823.197 423.93 823.088 423.924 822.964C423.921 822.839 424.017 822.72 424.213 822.607C424.409 822.494 424.614 822.438 424.831 822.44C425.047 822.442 425.238 822.49 425.404 822.587C425.567 822.681 425.65 822.79 425.653 822.916C425.653 823.039 425.555 823.157 425.359 823.27C425.164 823.383 424.959 823.44 424.746 823.44C424.533 823.436 424.345 823.387 424.182 823.293ZM428.758 822.09L429.345 822.394C429.271 821.94 429.522 821.546 430.1 821.212C431.101 820.633 432.184 820.67 433.348 821.322L436.525 823.159L435.445 823.784L432.33 821.983C432.025 821.806 431.733 821.715 431.455 821.708C431.177 821.697 430.888 821.779 430.589 821.952C430.153 822.204 430.026 822.505 430.206 822.856L433.628 824.835L432.548 825.459L427.741 822.679L428.758 822.09ZM435.001 821.22C434.254 820.788 433.834 820.343 433.739 819.884C433.644 819.421 433.887 819.022 434.467 818.686C435.015 818.37 435.637 818.231 436.333 818.27L435.898 817.962L436.871 817.399L441.532 820.095C442.162 820.459 442.463 820.861 442.434 821.299C442.407 821.736 442.061 822.147 441.394 822.532C441.041 822.736 440.623 822.893 440.137 823.003C439.657 823.112 439.211 823.149 438.799 823.113L438.662 822.442C439.387 822.479 439.993 822.356 440.479 822.075C440.837 821.868 441.022 821.648 441.034 821.415C441.049 821.184 440.869 820.959 440.492 820.742L440.168 820.554C440.203 820.934 439.962 821.274 439.443 821.574C438.881 821.899 438.197 822.037 437.391 821.985C436.588 821.932 435.791 821.677 435.001 821.22ZM436.169 820.652C436.652 820.931 437.13 821.094 437.604 821.143C438.078 821.187 438.49 821.109 438.839 820.906C439.275 820.654 439.411 820.36 439.248 820.023L437.133 818.8C436.564 818.707 436.062 818.786 435.627 819.039C435.272 819.244 435.136 819.485 435.218 819.763C435.304 820.039 435.621 820.335 436.169 820.652Z" fill="#EDE7F6"/>
<path opacity="0.1" d="M398.959 823.649C398.546 823.411 398.103 823.288 397.63 823.283C397.156 823.271 396.542 823.364 395.786 823.562C395.031 823.76 394.354 823.916 393.755 824.029C393.151 824.14 392.574 824.203 392.025 824.217C391.476 824.226 390.943 824.174 390.424 824.06C389.91 823.944 389.406 823.743 388.913 823.457C388.062 822.965 387.637 822.405 387.637 821.776C387.637 821.147 388.042 820.545 388.853 819.972L387.236 819.037L388.445 818.339L390.084 819.286C391.101 818.844 392.171 818.656 393.294 818.723C394.412 818.787 395.462 819.103 396.443 819.671L394.261 820.933C393.656 820.583 393.08 820.395 392.531 820.37C391.982 820.338 391.499 820.442 391.081 820.684C390.668 820.923 390.467 821.176 390.477 821.444C390.482 821.709 390.69 821.961 391.103 822.2C391.486 822.421 391.904 822.534 392.357 822.54C392.811 822.546 393.457 822.446 394.298 822.239C395.144 822.029 395.87 821.875 396.474 821.776C397.073 821.674 397.642 821.625 398.181 821.627C398.714 821.627 399.226 821.687 399.714 821.806C400.197 821.923 400.668 822.113 401.126 822.379C401.983 822.874 402.411 823.43 402.411 824.047C402.411 824.664 401.99 825.271 401.149 825.868L402.652 826.738L401.451 827.432L399.956 826.567C398.813 827.1 397.647 827.352 396.459 827.323C395.27 827.288 394.16 826.972 393.127 826.375L395.311 825.113C395.91 825.459 396.512 825.644 397.116 825.667C397.72 825.685 398.289 825.539 398.823 825.231C399.266 824.974 399.5 824.705 399.525 824.422C399.546 824.137 399.356 823.879 398.959 823.649ZM400.432 819.889L395.477 816.29L401.64 812.726L403.46 813.779L399.087 816.307L401.179 817.832C401.421 817.372 401.834 816.973 402.418 816.635C403.466 816.03 404.611 815.743 405.855 815.775C407.098 815.807 408.304 816.161 409.473 816.836C410.183 817.247 410.668 817.702 410.931 818.203C411.192 818.698 411.2 819.197 410.953 819.701C410.701 820.202 410.195 820.672 409.435 821.112C408.77 821.496 408.02 821.776 407.184 821.95C406.343 822.122 405.512 822.163 404.692 822.073C403.876 821.98 403.146 821.758 402.501 821.409L404.661 820.16C405.165 820.399 405.681 820.514 406.21 820.505C406.738 820.49 407.224 820.355 407.667 820.099C408.161 819.813 408.365 819.491 408.279 819.134C408.189 818.773 407.819 818.404 407.169 818.029C406.545 817.668 405.913 817.48 405.273 817.465C404.633 817.45 404.032 817.606 403.468 817.932C402.949 818.232 402.665 818.554 402.615 818.897L402.599 819.134L400.432 819.889ZM417.253 811.158C418.773 812.037 419.621 812.892 419.798 813.722C419.974 814.552 419.455 815.318 418.242 816.02C417.043 816.713 415.732 817.014 414.306 816.924C412.882 816.833 411.424 816.366 409.934 815.521L407.909 814.351C406.373 813.463 405.525 812.605 405.364 811.778C405.208 810.949 405.729 810.187 406.927 809.494C408.126 808.801 409.438 808.5 410.862 808.59C412.282 808.678 413.738 809.143 415.228 809.988L417.253 811.158ZM412.849 811.137C411.938 810.609 411.15 810.299 410.485 810.206C409.82 810.107 409.223 810.21 408.695 810.516C408.181 810.813 408 811.148 408.151 811.521C408.302 811.887 408.79 812.318 409.616 812.813L412.29 814.359C413.186 814.878 413.974 815.194 414.654 815.308C415.334 815.415 415.943 815.313 416.482 815.002C417.016 814.693 417.192 814.349 417.011 813.971C416.83 813.592 416.313 813.151 415.462 812.648L412.849 811.137ZM426.135 806.022C427.655 806.901 428.504 807.756 428.68 808.586C428.857 809.415 428.338 810.181 427.124 810.883C425.926 811.576 424.614 811.877 423.189 811.787C421.764 811.697 420.306 811.23 418.816 810.385L416.792 809.215C415.256 808.327 414.407 807.469 414.246 806.642C414.09 805.812 414.611 805.051 415.81 804.358C417.008 803.665 418.32 803.364 419.745 803.454C421.165 803.541 422.62 804.007 424.111 804.852L426.135 806.022ZM421.732 806C420.82 805.473 420.032 805.163 419.367 805.07C418.702 804.971 418.106 805.074 417.577 805.38C417.063 805.677 416.882 806.012 417.033 806.384C417.184 806.751 417.673 807.182 418.499 807.677L421.173 809.223C422.069 809.742 422.857 810.058 423.537 810.171C424.216 810.279 424.826 810.177 425.364 809.865C425.898 809.557 426.075 809.213 425.893 808.835C425.712 808.456 425.196 808.015 424.345 807.512L421.732 806ZM431.294 807.057C430.946 806.856 430.78 806.626 430.795 806.367C430.815 806.105 431.002 805.872 431.354 805.668C431.711 805.461 432.114 805.354 432.562 805.345C433.016 805.333 433.416 805.428 433.763 805.629C434.106 805.827 434.269 806.056 434.255 806.314C434.234 806.571 434.043 806.804 433.68 807.013C433.323 807.22 432.922 807.329 432.479 807.341C432.031 807.349 431.636 807.255 431.294 807.057ZM439.519 798.283C441.04 799.162 441.888 800.016 442.064 800.846C442.241 801.676 441.722 802.442 440.508 803.144C439.31 803.837 437.998 804.138 436.573 804.048C435.148 803.958 433.69 803.49 432.2 802.646L430.176 801.475C428.64 800.587 427.791 799.73 427.631 798.903C427.474 798.073 427.995 797.311 429.194 796.619C430.392 795.926 431.704 795.624 433.129 795.714C434.549 795.802 436.004 796.268 437.495 797.112L439.519 798.283ZM435.116 798.26C434.204 797.734 433.416 797.424 432.752 797.33C432.087 797.231 431.49 797.335 430.961 797.641C430.447 797.937 430.266 798.273 430.418 798.645C430.568 799.012 431.057 799.443 431.883 799.938L434.557 801.484C435.453 802.002 436.241 802.318 436.921 802.432C437.6 802.54 438.21 802.437 438.748 802.126C439.282 801.818 439.459 801.474 439.277 801.095C439.096 800.717 438.58 800.276 437.729 799.772L435.116 798.26ZM448.401 793.146C449.922 794.026 450.771 794.88 450.947 795.71C451.123 796.54 450.605 797.305 449.391 798.007C448.192 798.7 446.881 799.002 445.456 798.911C444.031 798.821 442.573 798.354 441.082 797.51L439.058 796.339C437.522 795.451 436.674 794.593 436.513 793.766C436.357 792.936 436.878 792.175 438.076 791.482C439.275 790.789 440.586 790.488 442.012 790.578C443.432 790.665 444.887 791.132 446.377 791.976L448.401 793.146ZM443.998 793.124C443.087 792.598 442.299 792.287 441.634 792.194C440.969 792.095 440.373 792.199 439.844 792.504C439.33 792.801 439.149 793.136 439.3 793.509C439.451 793.876 439.939 794.307 440.765 794.802L443.439 796.348C444.335 796.866 445.123 797.182 445.803 797.295C446.483 797.403 447.092 797.301 447.631 796.99C448.165 796.681 448.341 796.338 448.16 795.959C447.978 795.581 447.462 795.139 446.612 794.636L443.998 793.124Z" fill="white"/>
<path d="M398.959 818.387C398.546 818.148 398.103 818.026 397.63 818.02C397.156 818.009 396.542 818.102 395.786 818.3C395.031 818.498 394.354 818.654 393.755 818.767C393.151 818.878 392.574 818.941 392.025 818.955C391.476 818.964 390.943 818.911 390.424 818.798C389.91 818.681 389.406 818.48 388.913 818.195C388.062 817.703 387.637 817.143 387.637 816.513C387.637 815.885 388.042 815.283 388.853 814.71L387.236 813.775L388.445 813.076L390.084 814.024C391.101 813.581 392.171 813.394 393.294 813.46C394.412 813.525 395.462 813.841 396.443 814.409L394.261 815.67C393.656 815.321 393.08 815.133 392.531 815.107C391.982 815.075 391.499 815.18 391.081 815.422C390.668 815.66 390.467 815.914 390.477 816.182C390.482 816.447 390.69 816.699 391.103 816.938C391.486 817.159 391.904 817.272 392.357 817.278C392.811 817.284 393.457 817.183 394.298 816.977C395.144 816.767 395.87 816.613 396.474 816.513C397.073 816.412 397.642 816.362 398.181 816.365C398.714 816.365 399.226 816.425 399.714 816.544C400.197 816.661 400.668 816.851 401.126 817.116C401.983 817.612 402.411 818.167 402.411 818.785C402.411 819.402 401.99 820.009 401.149 820.606L402.652 821.475L401.451 822.17L399.956 821.305C398.813 821.838 397.647 822.09 396.459 822.061C395.27 822.025 394.16 821.71 393.127 821.113L395.311 819.851C395.91 820.197 396.512 820.382 397.116 820.405C397.72 820.423 398.289 820.277 398.823 819.968C399.266 819.712 399.5 819.443 399.525 819.16C399.546 818.875 399.356 818.617 398.959 818.387ZM400.432 814.627L395.477 811.028L401.64 807.464L403.46 808.516L399.087 811.045L401.179 812.57C401.421 812.11 401.834 811.711 402.418 811.373C403.466 810.767 404.611 810.481 405.855 810.513C407.098 810.545 408.304 810.898 409.473 811.574C410.183 811.984 410.668 812.44 410.931 812.941C411.192 813.436 411.2 813.935 410.953 814.439C410.701 814.94 410.195 815.41 409.435 815.85C408.77 816.234 408.02 816.513 407.184 816.688C406.343 816.86 405.512 816.901 404.692 816.811C403.876 816.718 403.146 816.496 402.501 816.147L404.661 814.898C405.165 815.136 405.681 815.252 406.21 815.243C406.738 815.228 407.224 815.093 407.667 814.836C408.161 814.551 408.365 814.229 408.279 813.871C408.189 813.51 407.819 813.142 407.169 812.766C406.545 812.405 405.913 812.218 405.273 812.203C404.633 812.188 404.032 812.344 403.468 812.67C402.949 812.97 402.665 813.292 402.615 813.635L402.599 813.871L400.432 814.627ZM417.253 805.896C418.773 806.775 419.621 807.63 419.798 808.46C419.974 809.29 419.455 810.055 418.242 810.757C417.043 811.45 415.732 811.751 414.306 811.661C412.882 811.571 411.424 811.104 409.934 810.259L407.909 809.089C406.373 808.201 405.525 807.343 405.364 806.516C405.208 805.686 405.729 804.925 406.927 804.232C408.126 803.539 409.438 803.238 410.862 803.328C412.282 803.415 413.738 803.881 415.228 804.726L417.253 805.896ZM412.849 805.874C411.938 805.347 411.15 805.037 410.485 804.944C409.82 804.845 409.223 804.948 408.695 805.254C408.181 805.551 408 805.886 408.151 806.258C408.302 806.625 408.79 807.056 409.616 807.551L412.29 809.097C413.186 809.616 413.974 809.932 414.654 810.045C415.334 810.153 415.943 810.051 416.482 809.74C417.016 809.431 417.192 809.087 417.011 808.709C416.83 808.33 416.313 807.889 415.462 807.386L412.849 805.874ZM426.135 800.76C427.655 801.639 428.504 802.493 428.68 803.323C428.857 804.153 428.338 804.919 427.124 805.621C425.926 806.314 424.614 806.615 423.189 806.525C421.764 806.435 420.306 805.967 418.816 805.123L416.792 803.953C415.256 803.064 414.407 802.207 414.246 801.38C414.09 800.55 414.611 799.789 415.81 799.096C417.008 798.403 418.32 798.101 419.745 798.192C421.165 798.279 422.62 798.745 424.111 799.589L426.135 800.76ZM421.732 800.738C420.82 800.211 420.032 799.901 419.367 799.808C418.702 799.708 418.106 799.812 417.577 800.118C417.063 800.414 416.882 800.75 417.033 801.122C417.184 801.489 417.673 801.92 418.499 802.415L421.173 803.961C422.069 804.479 422.857 804.796 423.537 804.909C424.216 805.017 424.826 804.915 425.364 804.603C425.898 804.295 426.075 803.951 425.893 803.573C425.712 803.194 425.196 802.753 424.345 802.249L421.732 800.738ZM431.294 801.795C430.946 801.594 430.78 801.364 430.795 801.105C430.815 800.843 431.002 800.61 431.354 800.406C431.711 800.199 432.114 800.091 432.562 800.083C433.016 800.071 433.416 800.166 433.763 800.367C434.106 800.564 434.269 800.793 434.255 801.052C434.234 801.308 434.043 801.542 433.68 801.751C433.323 801.958 432.922 802.067 432.479 802.079C432.031 802.087 431.636 801.993 431.294 801.795ZM439.519 793.02C441.04 793.9 441.888 794.754 442.064 795.584C442.241 796.414 441.722 797.18 440.508 797.881C439.31 798.574 437.998 798.876 436.573 798.785C435.148 798.695 433.69 798.228 432.2 797.384L430.176 796.213C428.64 795.325 427.791 794.467 427.631 793.641C427.474 792.811 427.995 792.049 429.194 791.357C430.392 790.664 431.704 790.362 433.129 790.452C434.549 790.539 436.004 791.006 437.495 791.85L439.519 793.02ZM435.116 792.998C434.204 792.472 433.416 792.162 432.752 792.068C432.087 791.969 431.49 792.073 430.961 792.378C430.447 792.675 430.266 793.01 430.418 793.383C430.568 793.75 431.057 794.181 431.883 794.676L434.557 796.222C435.453 796.74 436.241 797.056 436.921 797.169C437.6 797.277 438.21 797.175 438.748 796.864C439.282 796.555 439.459 796.212 439.277 795.833C439.096 795.455 438.58 795.014 437.729 794.51L435.116 792.998ZM448.401 787.884C449.922 788.763 450.771 789.618 450.947 790.448C451.123 791.278 450.605 792.043 449.391 792.745C448.192 793.438 446.881 793.74 445.456 793.649C444.031 793.559 442.573 793.092 441.082 792.247L439.058 791.077C437.522 790.189 436.674 789.331 436.513 788.504C436.357 787.674 436.878 786.913 438.076 786.22C439.275 785.527 440.586 785.226 442.012 785.316C443.432 785.403 444.887 785.869 446.377 786.713L448.401 787.884ZM443.998 787.862C443.087 787.335 442.299 787.025 441.634 786.932C440.969 786.833 440.373 786.937 439.844 787.242C439.33 787.539 439.149 787.874 439.3 788.247C439.451 788.613 439.939 789.044 440.765 789.54L443.439 791.086C444.335 791.604 445.123 791.92 445.803 792.033C446.483 792.141 447.092 792.039 447.631 791.728C448.165 791.419 448.341 791.076 448.16 790.697C447.978 790.318 447.462 789.877 446.612 789.373L443.998 787.862Z" fill="white"/>
<path d="M370.407 795.1L357.67 802.466C355.66 803.628 355.66 805.513 357.67 806.675L370.407 814.04C372.417 815.203 375.676 815.203 377.686 814.04L390.424 806.675C392.434 805.513 392.434 803.628 390.424 802.466L377.686 795.1C375.676 793.938 372.417 793.938 370.407 795.1Z" fill="#5E35B1"/>
<g opacity="0.3">
<path opacity="0.3" d="M375.867 801.94L371.318 804.57C370.816 804.861 370.816 805.332 371.318 805.623L374.048 807.201C374.55 807.492 375.365 807.492 375.867 807.201L380.416 804.57C380.919 804.28 380.919 803.809 380.416 803.518L377.687 801.94C377.185 801.65 376.37 801.65 375.867 801.94Z" stroke="white" stroke-width="1.5" stroke-linecap="round" stroke-linejoin="round"/>
<path opacity="0.3" d="M376.777 805.096C377.279 804.806 377.279 804.334 376.777 804.044C376.274 803.754 375.459 803.754 374.957 804.044C374.454 804.334 374.454 804.806 374.957 805.096C375.459 805.387 376.274 805.387 376.777 805.096Z" fill="#90CAF9"/>
<path opacity="0.3" d="M374.958 802.466L374.048 801.94C373.806 801.801 373.479 801.722 373.138 801.722C372.797 801.722 372.47 801.801 372.228 801.94L367.679 804.57C367.437 804.71 367.302 804.899 367.302 805.097C367.302 805.294 367.437 805.483 367.679 805.623L370.409 807.201C370.65 807.341 370.977 807.419 371.318 807.419C371.659 807.419 371.987 807.341 372.228 807.201L373.138 806.675" stroke="white" stroke-width="1.5" stroke-linecap="round" stroke-linejoin="round"/>
</g>
<path d="M375.867 798.242L371.318 800.872C370.816 801.163 370.816 801.634 371.318 801.925L374.048 803.503C374.55 803.794 375.365 803.794 375.867 803.503L380.416 800.872C380.919 800.582 380.919 800.111 380.416 799.82L377.687 798.242C377.185 797.951 376.37 797.951 375.867 798.242Z" stroke="white" stroke-width="1.5" stroke-linecap="round" stroke-linejoin="round"/>
<path d="M376.777 801.398C377.279 801.108 377.279 800.636 376.777 800.346C376.274 800.055 375.459 800.055 374.957 800.346C374.454 800.636 374.454 801.108 374.957 801.398C375.459 801.689 376.274 801.689 376.777 801.398Z" fill="#90CAF9"/>
<path d="M374.958 798.768L374.048 798.242C373.806 798.102 373.479 798.024 373.138 798.024C372.797 798.024 372.47 798.102 372.228 798.242L367.679 800.872C367.437 801.012 367.302 801.201 367.302 801.398C367.302 801.596 367.437 801.785 367.679 801.925L370.409 803.503C370.65 803.642 370.977 803.721 371.318 803.721C371.659 803.721 371.987 803.642 372.228 803.503L373.138 802.976" stroke="white" stroke-width="1.5" stroke-linecap="round" stroke-linejoin="round"/>
</g>
</g>
</g>
<defs>
<filter id="filter0_d_5311_105998" x="275.929" y="715.403" width="371.377" height="268.72" filterUnits="userSpaceOnUse" color-interpolation-filters="sRGB">
<feFlood flood-opacity="0" result="BackgroundImageFix"/>
<feColorMatrix in="SourceAlpha" type="matrix" values="0 0 0 0 0 0 0 0 0 0 0 0 0 0 0 0 0 0 127 0" result="hardAlpha"/>
<feOffset dy="64"/>
<feGaussianBlur stdDeviation="32"/>
<feColorMatrix type="matrix" values="0 0 0 0 0.403922 0 0 0 0 0.227451 0 0 0 0 0.717647 0 0 0 0.2 0"/>
<feBlend mode="normal" in2="BackgroundImageFix" result="effect1_dropShadow_5311_105998"/>
<feBlend mode="normal" in="SourceGraphic" in2="effect1_dropShadow_5311_105998" result="shape"/>
</filter>
<linearGradient id="paint0_linear_5311_105998" x1="574.669" y1="747.247" x2="351.902" y2="843.063" gradientUnits="userSpaceOnUse">
<stop stop-color="#A491C8"/>
<stop offset="1" stop-color="#D7C5F8"/>
</linearGradient>
<linearGradient id="paint1_linear_5311_105998" x1="348.683" y1="795.837" x2="517.793" y2="852.173" gradientUnits="userSpaceOnUse">
<stop stop-color="white"/>
<stop offset="1" stop-color="white" stop-opacity="0"/>
</linearGradient>
<clipPath id="clip0_5311_105998">
<rect width="707" height="1188" fill="white"/>
</clipPath>
<clipPath id="clip1_5311_105998">
<rect width="311" height="231" fill="white" transform="translate(306 703)"/>
</clipPath>
</defs>
</svg>
